<svg width="1001.5748031496064" height="668.976377952756" xmlns="http://www.w3.org/2000/svg">
 <metadata id="metadata329">image/svg+xml</metadata>
 <defs>
  <pattern y="0" x="0" height="6" width="6" patternUnits="userSpaceOnUse" id="EMFhbasepattern"/>
 </defs>
 <g>
  <title>background</title>
  <rect x="-1" y="-1" width="1003.574803" height="670.976378" id="canvas_background" fill="none"/>
 </g>
 <g>
  <title>Layer 1</title>
  <g id="svg_2">
   <path id="path7" d="m343.7506,593.35337c-82.71939,0 -149.75889,-9.83992 -149.75889,-21.99983c0,-12.15991 67.0395,-21.99984 149.75889,-21.99984c82.71939,0 149.83889,9.83993 149.83889,21.99984c0,12.15991 -67.1195,21.99983 -149.83889,21.99983z" fill-rule="nonzero" fill="#f8db9d"/>
   <path id="path9" d="m623.42853,587.67342c-63.83953,0 -115.67915,-13.6799 -115.67915,-30.47978c0,-16.87987 51.83962,-30.55977 115.67915,-30.55977c63.91952,0 115.75914,13.6799 115.75914,30.55977c0,16.79988 -51.83962,30.47978 -115.75914,30.47978z" fill-rule="nonzero" fill="#f8db9d"/>
   <path id="path11" d="m279.91107,463.19434c-26.6398,0 -53.1996,-4.15997 -78.47942,-12.39991c-23.11982,-7.51995 -45.19966,-18.63986 -65.03951,-32.71976c6.07995,-4.63996 9.99992,-11.91991 9.99992,-20.07985c0,-13.9199 -11.27991,-25.19981 -25.19981,-25.19981c-9.27993,0 -17.43987,5.03996 -21.75984,12.4799c-13.9199,-15.35988 -25.59981,-32.55975 -34.39975,-51.35961c-26.0798,-55.83959 -24.47982,-124.87908 8.39994,-177.03869c31.83977,-50.39963 82.63939,-73.03946 135.359,-73.03946c8.79993,0 17.59987,0.55999 26.4798,1.83998c-0.08,0.72 -0.16,1.43999 -0.16,2.23999c0,10.95992 8.95994,19.83985 19.91986,19.83985c8.47993,0 15.75988,-5.27996 18.55986,-12.7999c19.83985,6.87994 38.79971,16.71987 56.07958,29.43978l90.79933,48.07964c16.07988,19.83985 44.47967,26.9598 71.03948,26.9598c10.31992,0 20.31984,-1.03999 29.19978,-2.87998c55.83959,-11.35991 100.63925,-50.47962 153.11886,-70.95947c27.8398,-10.79992 59.35956,-16.79988 90.87933,-16.79988c59.35956,0 118.63912,21.19985 152.79887,71.03948c46.15966,67.4395 33.03975,172.39872 -45.59966,209.35845c-9.11994,4.31996 -18.55987,7.43994 -28.23979,9.51993c-6.07996,-16.07989 -21.67984,-27.5198 -39.91971,-27.5198c-17.91987,0 -33.27975,11.03992 -39.51971,26.7998c-12.8799,-2.23998 -25.59981,-5.27996 -38.07971,-8.63994c-43.75968,-11.83991 -87.83935,-27.59979 -132.95902,-27.59979c-4.15997,0 -8.31994,0.16 -12.55991,0.4c-82.39938,5.67995 -149.75889,67.3595 -228.9583,90.71932c-23.27983,6.87995 -47.51965,10.31993 -71.75947,10.31993m368.79727,-211.83843c-3.59997,0 -7.11995,0.55999 -10.55992,1.75998c-4.39997,1.59999 -8.31994,4.15997 -11.35992,7.43995c-5.75995,6.23995 -8.39993,14.79989 -4.87996,23.43982c3.27997,7.99995 10.47992,13.8399 18.39986,17.19988c6.95995,2.87998 14.87989,4.87996 22.63984,4.87996c2.55998,0 5.11996,-0.16 7.59994,-0.71999c9.91993,-1.91999 18.87986,-7.03995 28.15979,-11.19992c7.19995,-3.27998 15.43989,-6.23995 23.59983,-6.23995c2.15998,0 4.39996,0.23999 6.47995,0.71999c10.23992,2.23998 19.03986,7.35995 29.91978,7.91994c0.87999,0.08 1.83998,0.08 2.79998,0.08c6.47995,0 13.1999,-1.11999 19.03985,-3.51997c11.51992,-4.63997 18.15987,-15.99988 16.47988,-28.39979c-0.95999,-7.27995 -4.79996,-13.5999 -10.15992,-18.71986c8.71993,-4.07997 14.79989,-12.95991 14.79989,-23.19983c0,-14.1599 -11.43992,-25.59981 -25.59981,-25.59981c-14.0799,0 -25.51981,11.43991 -25.51981,25.59981c0,2.87998 0.47999,5.59996 1.35999,8.23994c-1.67999,-0.16 -3.35998,-0.24 -4.95997,-0.24c-4.63996,0 -9.11993,0.63999 -13.0399,1.91998c-8.63994,2.79998 -15.27989,8.47994 -19.91985,16.31988c-2.71998,4.63997 -5.27996,9.67993 -9.59993,13.03991c-3.43998,2.71998 -7.35995,3.75997 -11.35992,3.75997c-6.31995,0 -12.7999,-2.71998 -18.15986,-6.07996c-7.67995,-4.71996 -16.95988,-8.39993 -26.15981,-8.39993z" fill-rule="nonzero" fill="#f8db9d"/>
  </g>
 </g>
</svg>