<svg width="640" height="480.00000000000006" xmlns="http://www.w3.org/2000/svg">
 <metadata id="metadata329">image/svg+xml</metadata>
 <defs>
  <pattern y="0" x="0" height="6" width="6" patternUnits="userSpaceOnUse" id="EMFhbasepattern"/>
 </defs>
 <g>
  <title>background</title>
  <rect x="-1" y="-1" width="642" height="482" id="canvas_background" fill="none"/>
 </g>
 <g>
  <title>Layer 1</title>
  <g id="svg_1">
   <path id="path51" d="m164.079147,299.156687l-7.19994,-18.07986c-1.83999,-4.63997 0.47999,-9.91993 5.11996,-11.75992c4.55996,-1.83998 9.91992,0.4 11.67991,5.03997l7.27995,18.15986c1.83998,4.63997 -0.48,9.91993 -5.11997,11.75991c-4.63996,1.83999 -9.91992,-0.47999 -11.75991,-5.11996z" fill-rule="nonzero" fill="#585eb4"/>
   <path id="path53" d="m395.757437,298.596697c50.47962,-18.71986 76.47943,-74.15945 58.07957,-123.91909c-18.39987,-49.75963 -74.31945,-74.95944 -124.79908,-56.23958c-29.27978,10.87992 -50.23963,34.07975 -59.11956,61.35955l-65.91951,60.55955l17.75986,56.95958l97.59928,-2.15999c23.03983,11.03992 50.39963,13.03991 76.39944,3.43998z" fill-rule="nonzero" fill="#f2b83a"/>
   <path id="path55" d="m454.636997,177.397587c-82.63939,30.55978 -160.55881,59.43956 -242.31821,89.67934l9.43993,30.23978l97.59928,-2.15999c23.03983,11.03992 50.39963,13.03991 76.39944,3.43998c49.59963,-18.31987 75.43944,-72.15947 58.87956,-121.19911z" fill-rule="nonzero" fill="#f79638"/>
   <path id="path57" d="m233.598637,278.196847c-0.32,-0.32 -0.56,-0.72 -0.8,-1.11999c-0.47999,-1.43999 0.24,-2.95998 1.59999,-3.43998l102.95924,-38.15972l-10.15993,0.4c-1.19999,0.08 -2.23998,-0.63999 -2.63998,-1.67999c-0.39999,-1.11999 0,-2.31998 0.88,-3.03997l15.59988,-12.31991l-19.91985,0.71999c-1.11999,0.08 -2.15999,-0.63999 -2.55998,-1.67999c-0.4,-1.11999 -0.08,-2.31998 0.79999,-3.03997l9.91993,-7.83994l-100.79926,37.35972c-1.35998,0.48 -2.87997,-0.16 -3.35997,-1.59999c-0.56,-1.35999 0.16,-2.87998 1.51999,-3.35997l116.39914,-43.11969c1.27999,-0.47999 2.63998,0.08 3.27997,1.2c0.64,1.11999 0.32,2.55998 -0.71999,3.35997l-16.55988,13.1199l19.91985,-0.79999c1.19999,0 2.23999,0.71999 2.63998,1.75999c0.4,1.03999 0,2.31998 -0.87999,2.95997l-15.59988,12.39991l18.63986,-0.71999c1.35999,-0.08 2.47998,0.87999 2.71998,2.15998c0.24,1.19999 -0.4,2.47998 -1.67999,2.95998l-118.55912,43.91968c-0.88,0.31999 -1.91999,0.15999 -2.63998,-0.4z" fill-rule="nonzero" fill="#f6e8dc"/>
   <path id="path59" d="m209.838807,315.076567c-11.75991,4.31997 -24.47982,-0.63999 -28.39979,-11.19991l-15.27988,-41.4397c-3.91997,-10.55992 2.39998,-22.63983 14.15989,-26.9598c11.75991,-4.39996 24.47982,0.64 28.39979,11.19992l15.35989,41.3597c3.91997,10.55992 -2.47998,22.63983 -14.2399,27.03979z" fill-rule="nonzero" fill="#8d83c9"/>
   <path id="path61" d="m226.318687,320.996527c-8.07994,3.03998 -17.43987,-2.23998 -20.87984,-11.59991l-24.23982,-65.35952c-3.51998,-9.43993 0.23999,-19.51985 8.23993,-22.47983c8.07994,-2.95998 17.43987,2.23998 20.87985,11.67991l24.23982,65.35952c3.43997,9.43993 -0.24,19.43985 -8.23994,22.39983z" fill-rule="nonzero" fill="#8d83c9"/>
   <path id="path63" d="m202.398867,269.396907l-13.1999,-33.35975c-0.8,-1.91999 0.15999,-4.15997 2.15998,-4.95996c1.91999,-0.72 4.15997,0.24 4.95996,2.15998l13.19991,33.27975c0.79999,1.99999 -0.16,4.23997 -2.15999,4.95997c-1.91998,0.79999 -4.15997,-0.16 -4.95996,-2.07999z" fill-rule="nonzero" fill="#bdb2df"/>
   <path id="path65" d="m214.878777,300.836677l-6.15996,-15.59988c-0.79999,-1.99999 0.16,-4.23997 2.15999,-5.03997c1.91998,-0.71999 4.15996,0.24 4.95996,2.15999l6.15995,15.59988c0.8,1.99999 -0.16,4.23997 -2.15998,5.03996c-1.91999,0.72 -4.15997,-0.23999 -4.95996,-2.15998z" fill-rule="nonzero" fill="#bdb2df"/>
   <path id="path67" d="m253.838487,323.156517c-8.07994,2.95997 -18.23987,-4.39997 -22.71983,-16.55988l-31.27977,-84.39938c-4.47997,-12.15991 -1.59999,-24.47982 6.39995,-27.43979c8.07994,-2.95998 18.23986,4.47996 22.71983,16.63987l31.27977,84.39938c4.47997,12.15991 1.59999,24.39982 -6.39995,27.3598z" fill-rule="nonzero" fill="#585eb4"/>
   <path id="path69" d="m361.597687,126.997967c-19.35986,1.35999 -38.39972,8.47994 -53.43961,20.95984c-1.43998,1.19999 -1.59998,3.19998 -0.47999,4.63997c1.19999,1.35999 3.27997,1.59999 4.63996,0.4c13.9199,-11.51992 31.67977,-18.15987 49.67964,-19.43986c1.83998,-0.16 3.19997,-1.67999 3.03997,-3.51997c-0.08,-1.83999 -1.67998,-3.19998 -3.43997,-3.03998z" fill-rule="nonzero" fill="#ffffff"/>
   <path id="path71" d="m402.557387,133.237917c-5.83996,-2.31998 -11.91992,-3.99997 -17.99987,-5.03996c-1.83999,-0.32 -3.51998,0.87999 -3.83997,2.63998c-0.32,1.75999 0.87999,3.43997 2.63998,3.75997c5.75996,1.03999 11.35991,2.55998 16.71987,4.71997c1.67999,0.71999 3.59998,-0.08 4.23997,-1.75999c0.72,-1.67999 -0.08,-3.59997 -1.75998,-4.31997z" fill-rule="nonzero" fill="#ffffff"/>
   <path id="path73" d="m399.437407,270.676897c-14.3199,9.51993 -31.51977,14.6399 -48.71964,14.6399c-3.03998,0 -5.99996,-0.16 -9.03993,-0.48c-1.75999,-0.16 -3.35998,1.11999 -3.59998,2.95998c-0.16,1.75998 1.11999,3.35997 2.95998,3.59997c3.19998,0.32 6.39995,0.48 9.67993,0.48c18.47986,0 36.95973,-5.43996 52.39961,-15.67989c1.43999,-1.03999 1.83999,-3.03997 0.87999,-4.55996c-0.95999,-1.51999 -3.03997,-1.91999 -4.55996,-0.96z" fill-rule="nonzero" fill="#ffffff"/>
  </g>
 </g>
</svg>