<svg width="1001.5748031496064" height="668.976377952756" xmlns="http://www.w3.org/2000/svg">
 <metadata id="metadata329">image/svg+xml</metadata>
 <defs>
  <pattern y="0" x="0" height="6" width="6" patternUnits="userSpaceOnUse" id="EMFhbasepattern"/>
 </defs>
 <g>
  <title>background</title>
  <rect x="-1" y="-1" width="4008.319981" height="2677.919384" id="canvas_background" fill="none"/>
 </g>
 <g>
  <title>Layer 1</title>
  <g id="svg_6">
   <path id="path75" d="m540.156,235.19826c0,12.5599 -10.23993,22.71983 -22.71983,22.71983c-12.55991,0 -22.71983,-10.15993 -22.71983,-22.71983c0,-12.47991 10.15992,-22.71983 22.71983,-22.71983c12.4799,0 22.71983,10.23992 22.71983,22.71983z" fill-rule="nonzero" fill="#f2b83a"/>
   <path id="path77" d="m575.99573,174.15871c0,5.51996 -4.47996,9.91993 -9.99992,9.91993c-5.43996,0 -9.91993,-4.39997 -9.91993,-9.91993c0,-5.43996 4.47997,-9.91993 9.91993,-9.91993c5.51996,0 9.99992,4.47997 9.99992,9.91993z" fill-rule="nonzero" fill="#f2b83a"/>
   <path id="path79" d="m209.83845,227.91831c0,3.11998 -2.55999,5.67996 -5.67996,5.67996c-3.11998,0 -5.67996,-2.55998 -5.67996,-5.67996c0,-3.11998 2.55998,-5.67996 5.67996,-5.67996c3.11997,0 5.67996,2.55998 5.67996,5.67996z" fill-rule="nonzero" fill="#f2b83a"/>
   <path id="path81" d="m682.47494,247.99816c0,3.11998 -2.55998,5.67996 -5.67995,5.67996c-3.11998,0 -5.67996,-2.55998 -5.67996,-5.67996c0,-3.11997 2.55998,-5.67995 5.67996,-5.67995c3.11997,0 5.67995,2.55998 5.67995,5.67995z" fill-rule="nonzero" fill="#f2b83a"/>
   <path id="path83" d="m796.8741,283.9979c-8.95994,-8.55994 -22.39984,-13.8399 -34.95974,-14.95989c-0.88,-2.63998 -1.35999,-5.35996 -1.35999,-8.23994c0,-14.1599 11.43991,-25.59981 25.51981,-25.59981c14.15989,0 25.59981,11.43991 25.59981,25.59981c0,10.23992 -6.07996,19.11986 -14.79989,23.19983z" fill-rule="nonzero" fill="#f3c050"/>
   <path id="path85" d="m786.07418,286.31788c-11.19992,0 -20.71985,-7.19995 -24.15982,-17.27987c12.5599,1.11999 25.9998,6.39995 34.95974,14.95989c-3.27998,1.51999 -6.95995,2.31998 -10.79992,2.31998z" fill-rule="nonzero" fill="#b9933b"/>
   <path id="path87" d="m851.43369,369.43726c0,3.51998 -2.87998,6.31996 -6.39995,6.31996c-3.51997,0 -6.39995,-2.79998 -6.39995,-6.31996c0,-3.59997 2.87998,-6.39995 6.39995,-6.39995c3.51997,0 6.39995,2.79998 6.39995,6.39995z" fill-rule="nonzero" fill="#f2b83a"/>
   <path id="path89" d="m867.03358,257.91809c0,4.71996 -3.83997,8.55994 -8.47994,8.55994c-4.71996,0 -8.55994,-3.83998 -8.55994,-8.55994c0,-4.63997 3.83998,-8.47994 8.55994,-8.47994c4.63997,0 8.47994,3.83997 8.47994,8.47994z" fill-rule="nonzero" fill="#f2b83a"/>
   <path id="path91" d="m600.63555,207.67846c6.71995,0 12.23991,5.43996 12.23991,12.23991c0,6.71995 -5.51996,12.23991 -12.23991,12.23991c-6.79995,0 -12.23991,-5.51996 -12.23991,-12.23991c0,-6.79995 5.43996,-12.23991 12.23991,-12.23991z" fill-rule="nonzero" fill="#f2b83a"/>
   <path id="path93" d="m283.5979,132.95902c-12.55991,-4.31997 -25.43981,-7.43995 -38.31972,-9.27994c1.11999,-9.91992 9.51993,-17.67987 19.75986,-17.67987c10.95992,0 19.83985,8.95994 19.83985,19.91986c0,2.47998 -0.4,4.87996 -1.27999,7.03995z" fill-rule="nonzero" fill="#f5c974"/>
   <path id="path95" d="m265.03804,145.75892c-10.95992,0 -19.91986,-8.87993 -19.91986,-19.83985c0,-0.8 0.08,-1.51999 0.16,-2.23999c12.87991,1.83999 25.75981,4.95997 38.31972,9.27994c-2.79998,7.51994 -10.07993,12.7999 -18.55986,12.7999z" fill-rule="nonzero" fill="#f1b34b"/>
   <path id="path97" d="m87.19935,348.47742c0,10.15992 -8.23993,18.39986 -18.47986,18.39986c-10.15992,0 -18.39986,-8.23994 -18.39986,-18.39986c0,-10.23993 8.23994,-18.47986 18.39986,-18.47986c10.23993,0 18.47986,8.23993 18.47986,18.47986z" fill-rule="nonzero" fill="#f2b83a"/>
   <path id="path99" d="m327.51757,140.07896c0,4.71997 -3.83997,8.55994 -8.55993,8.55994c-4.71997,0 -8.47994,-3.83997 -8.47994,-8.55994c0,-4.71996 3.75997,-8.47993 8.47994,-8.47993c4.71996,0 8.55993,3.75997 8.55993,8.47993z" fill-rule="nonzero" fill="#f2b83a"/>
   <path id="path101" d="m211.03844,112.39917c0,1.99998 -1.51999,3.59997 -3.51998,3.59997c-1.91998,0 -3.51997,-1.59999 -3.51997,-3.59997c0,-1.91999 1.59999,-3.51998 3.51997,-3.51998c1.99999,0 3.51998,1.59999 3.51998,3.51998z" fill-rule="nonzero" fill="#f2b83a"/>
   <path id="path103" d="m250.79814,178.39868c0,6.31995 -5.03996,11.35991 -11.35991,11.35991c-6.23996,0 -11.35992,-5.03996 -11.35992,-11.35991c0,-6.23996 5.11996,-11.35992 11.35992,-11.35992c6.31995,0 11.35991,5.11996 11.35991,11.35992z" fill-rule="nonzero" fill="#f2b83a"/>
   <path id="path105" d="m161.19881,226.63832c0,7.91994 -6.39996,14.3199 -14.3999,14.3199c-7.91994,0 -14.31989,-6.39996 -14.31989,-14.3199c0,-7.99994 6.39995,-14.39989 14.31989,-14.39989c7.99994,0 14.3999,6.39995 14.3999,14.39989z" fill-rule="nonzero" fill="#f2b83a"/>
   <path id="path107" d="m97.11928,306.95773c0,4.07997 -3.35998,7.43994 -7.43994,7.43994c-4.15997,0 -7.43995,-3.35997 -7.43995,-7.43994c0,-4.15997 3.27998,-7.51995 7.43995,-7.51995c4.07996,0 7.43994,3.35998 7.43994,7.51995z" fill-rule="nonzero" fill="#f2b83a"/>
   <path id="path109" d="m125.91907,377.19721c0,2.39998 -1.91999,4.23996 -4.31997,4.23996c-2.31998,0 -4.23997,-1.83998 -4.23997,-4.23996c0,-2.31999 1.91999,-4.23997 4.23997,-4.23997c2.39998,0 4.31997,1.91998 4.31997,4.23997z" fill-rule="nonzero" fill="#f2b83a"/>
   <path id="path111" d="m685.11493,201.27851c0,3.75997 -3.11998,6.87995 -6.95995,6.87995c-3.83997,0 -6.87995,-3.11998 -6.87995,-6.87995c0,-3.83997 3.03998,-6.95995 6.87995,-6.95995c3.83997,0 6.95995,3.11998 6.95995,6.95995z" fill-rule="nonzero" fill="#f2b83a"/>
   <path id="path113" d="m591.11562,277.27795c0,3.83997 -3.11998,6.87995 -6.95995,6.87995c-3.83997,0 -6.87995,-3.03998 -6.87995,-6.87995c0,-3.83998 3.03998,-6.95995 6.87995,-6.95995c3.83997,0 6.95995,3.11997 6.95995,6.95995z" fill-rule="nonzero" fill="#f2b83a"/>
   <path id="path115" d="m609.51549,171.99873c0,2.31998 -1.91999,4.23996 -4.31997,4.23996c-2.31999,0 -4.23997,-1.91998 -4.23997,-4.23996c0,-2.39999 1.91998,-4.31997 4.23997,-4.31997c2.39998,0 4.31997,1.91998 4.31997,4.31997z" fill-rule="nonzero" fill="#f2b83a"/>
   <path id="path117" d="m566.8758,133.11901c0,2.63998 -2.15998,4.79997 -4.79996,4.79997c-2.63998,0 -4.71997,-2.15999 -4.71997,-4.79997c0,-2.63998 2.07999,-4.79996 4.71997,-4.79996c2.63998,0 4.79996,2.15998 4.79996,4.79996z" fill-rule="nonzero" fill="#f2b83a"/>
   <path id="path119" d="m770.31429,118.07913c0,2.63998 -2.15998,4.79996 -4.79996,4.79996c-2.63998,0 -4.79996,-2.15998 -4.79996,-4.79996c0,-2.63999 2.15998,-4.79997 4.79996,-4.79997c2.63998,0 4.79996,2.15998 4.79996,4.79997z" fill-rule="nonzero" fill="#f2b83a"/>
   <path id="path121" d="m839.59378,506.63625c0,2.63998 -2.07998,4.71996 -4.79996,4.71996c-2.63998,0 -4.71997,-2.07998 -4.71997,-4.71996c0,-2.71998 2.07999,-4.79997 4.71997,-4.79997c2.71998,0 4.79996,2.07999 4.79996,4.79997z" fill-rule="nonzero" fill="#f2b83a"/>
   <path id="path193" d="m813.75397,494.31634c-23.51982,0 -42.55968,-19.03986 -42.55968,-42.55969c0,-5.59995 1.03999,-10.87992 3.03997,-15.75988c14.7199,2.63998 29.59979,4.23997 44.31968,4.23997c11.83991,0 23.59982,-1.03999 35.11974,-3.51997c1.75998,4.63996 2.71998,9.75992 2.71998,15.03988c0,23.51983 -19.03986,42.55969 -42.63969,42.55969z" fill-rule="nonzero" fill="#f5c974"/>
   <path id="path195" d="m818.55394,440.23674c-14.71989,0 -29.59978,-1.59999 -44.31968,-4.23997c6.23996,-15.75988 21.59984,-26.7998 39.51971,-26.7998c18.23987,0 33.83975,11.43991 39.91971,27.5198c-11.51992,2.47998 -23.27983,3.51997 -35.11974,3.51997z" fill-rule="nonzero" fill="#f1b34b"/>
   <path id="path197" d="m940.15304,475.19648c0,5.83996 -4.79997,10.63992 -10.63993,10.63992c-5.91995,0 -10.63992,-4.79996 -10.63992,-10.63992c0,-5.91996 4.71997,-10.63992 10.63992,-10.63992c5.83996,0 10.63993,4.71996 10.63993,10.63992z" fill-rule="nonzero" fill="#f2b83a"/>
   <path id="path199" d="m925.27315,407.03698c0,7.83995 -6.39996,14.1599 -14.2399,14.1599c-7.83994,0 -14.15989,-6.31995 -14.15989,-14.1599c0,-7.83994 6.31995,-14.23989 14.15989,-14.23989c7.83994,0 14.2399,6.39995 14.2399,14.23989z" fill-rule="nonzero" fill="#f2b83a"/>
   <path id="path201" d="m889.75341,543.35598c0,5.03996 -4.15997,9.19993 -9.19993,9.19993c-5.11996,0 -9.27993,-4.15997 -9.27993,-9.19993c0,-5.11997 4.15997,-9.27994 9.27993,-9.27994c5.03996,0 9.19993,4.15997 9.19993,9.27994z" fill-rule="nonzero" fill="#f2b83a"/>
   <path id="path203" d="m105.03922,121.5191l-0.87999,0c-1.83999,0 -3.35998,-1.51999 -3.35998,-3.35998l0,-22.87983c0,-1.83998 1.51999,-3.35997 3.35998,-3.35997l0.87999,0c1.83999,0 3.35998,1.51999 3.35998,3.35997l0,22.87983c0,1.83999 -1.51999,3.35998 -3.35998,3.35998z" fill-rule="nonzero" fill="#f2b83a"/>
   <path id="path205" d="m119.35912,106.31921l0,0.8c0,1.91998 -1.51999,3.43997 -3.35998,3.43997l-22.79983,0c-1.91999,0 -3.43998,-1.51999 -3.43998,-3.43997l0,-0.8c0,-1.83998 1.51999,-3.35997 3.43998,-3.35997l22.79983,0c1.83999,0 3.35998,1.51999 3.35998,3.35997z" fill-rule="nonzero" fill="#f2b83a"/>
   <path id="path207" d="m104.31923,533.27605l-0.88,0c-1.83998,0 -3.35997,-1.51999 -3.35997,-3.35998l0,-22.87983c0,-1.83998 1.51999,-3.35997 3.35997,-3.35997l0.88,0c1.83998,0 3.35997,1.51999 3.35997,3.35997l0,22.87983c0,1.83999 -1.51999,3.35998 -3.35997,3.35998z" fill-rule="nonzero" fill="#f2b83a"/>
   <path id="path209" d="m118.63912,518.07616l0,0.8c0,1.91998 -1.51999,3.43997 -3.35997,3.43997l-22.79984,0c-1.91998,0 -3.43997,-1.51999 -3.43997,-3.43997l0,-0.8c0,-1.83998 1.51999,-3.35997 3.43997,-3.35997l22.79984,0c1.83998,0 3.35997,1.51999 3.35997,3.35997z" fill-rule="nonzero" fill="#f2b83a"/>
   <path id="path211" d="m881.67347,113.75916l-0.87999,0c-1.83999,0 -3.35998,-1.51999 -3.35998,-3.43998l0,-22.79983c0,-1.83998 1.51999,-3.35997 3.35998,-3.35997l0.87999,0c1.83999,0 3.35997,1.51999 3.35997,3.35997l0,22.79983c0,1.91999 -1.51998,3.43998 -3.35997,3.43998z" fill-rule="nonzero" fill="#f2b83a"/>
   <path id="path213" d="m896.07336,98.47927l0,0.87999c0,1.83999 -1.51999,3.35998 -3.43997,3.35998l-22.79983,0c-1.83999,0 -3.35998,-1.51999 -3.35998,-3.35998l0,-0.87999c0,-1.83999 1.51999,-3.35998 3.35998,-3.35998l22.79983,0c1.91998,0 3.43997,1.51999 3.43997,3.35998z" fill-rule="nonzero" fill="#f2b83a"/>
   <path id="path215" d="m890.7934,515.99618l-0.87999,0c-1.83999,0 -3.35998,-1.51999 -3.35998,-3.43998l0,-22.79983c0,-1.83998 1.51999,-3.35997 3.35998,-3.35997l0.87999,0c1.83999,0 3.35998,1.51999 3.35998,3.35997l0,22.79983c0,1.91999 -1.51999,3.43998 -3.35998,3.43998z" fill-rule="nonzero" fill="#f2b83a"/>
   <path id="path217" d="m905.19329,500.71629l0,0.87999c0,1.83999 -1.51998,3.35998 -3.43997,3.35998l-22.79983,0c-1.83999,0 -3.35998,-1.51999 -3.35998,-3.35998l0,-0.87999c0,-1.83999 1.51999,-3.35997 3.35998,-3.35997l22.79983,0c1.91999,0 3.43997,1.51998 3.43997,3.35997z" fill-rule="nonzero" fill="#f2b83a"/>
   <path id="path219" d="m271.91799,401.35703l-0.72,0c-2.47998,0 -4.47997,-1.99999 -4.47997,-4.47997l0,-31.43977c0,-2.39998 1.99999,-4.39996 4.47997,-4.39996l0.72,0c2.47998,0 4.47996,1.99998 4.47996,4.39996l0,31.43977c0,2.47998 -1.99998,4.47997 -4.47996,4.47997z" fill-rule="nonzero" fill="#ffffff"/>
   <path id="path221" d="m290.31785,380.39718l0,1.51999c0,2.47998 -1.99999,4.47997 -4.39997,4.47997l-28.63979,0c-2.47998,0 -4.47996,-1.99999 -4.47996,-4.47997l0,-1.51999c0,-2.39998 1.99998,-4.39997 4.47996,-4.39997l28.63979,0c2.39998,0 4.39997,1.99999 4.39997,4.39997z" fill-rule="nonzero" fill="#ffffff"/>
   <path id="path223" d="m97.83928,226.63832l-0.64,0c-1.43999,0 -2.55998,-1.19999 -2.55998,-2.63998l0,-17.43987c0,-1.43999 1.11999,-2.55998 2.55998,-2.55998l0.64,0c1.43998,0 2.63998,1.11999 2.63998,2.55998l0,17.43987c0,1.43999 -1.2,2.63998 -2.63998,2.63998z" fill-rule="nonzero" fill="#ffffff"/>
   <path id="path225" d="m108.87919,214.95841l0,0.63999c0,1.43999 -1.19999,2.63998 -2.63998,2.63998l-17.43987,0c-1.43999,0 -2.55998,-1.19999 -2.55998,-2.63998l0,-0.63999c0,-1.43999 1.11999,-2.55998 2.55998,-2.55998l17.43987,0c1.43999,0 2.63998,1.11999 2.63998,2.55998z" fill-rule="nonzero" fill="#ffffff"/>
   <path id="path227" d="m286.71788,323.8376l-0.64,0c-1.43999,0 -2.55998,-1.11999 -2.55998,-2.55998l0,-17.43987c0,-1.43999 1.11999,-2.63998 2.55998,-2.63998l0.64,0c1.43999,0 2.55998,1.19999 2.55998,2.63998l0,17.43987c0,1.43999 -1.11999,2.55998 -2.55998,2.55998z" fill-rule="nonzero" fill="#ffffff"/>
   <path id="path229" d="m297.67779,312.23769l0,0.63999c0,1.43999 -1.11999,2.55998 -2.55998,2.55998l-17.43987,0c-1.43999,0 -2.55998,-1.11999 -2.55998,-2.55998l0,-0.63999c0,-1.43999 1.11999,-2.63998 2.55998,-2.63998l17.43987,0c1.43999,0 2.55998,1.19999 2.55998,2.63998z" fill-rule="nonzero" fill="#ffffff"/>
   <path id="path231" d="m512.3962,354.47737l-0.63999,0c-1.43999,0 -2.55998,-1.19999 -2.55998,-2.63998l0,-17.43987c0,-1.43999 1.11999,-2.55998 2.55998,-2.55998l0.63999,0c1.43999,0 2.55999,1.11999 2.55999,2.55998l0,17.43987c0,1.43999 -1.12,2.63998 -2.55999,2.63998z" fill-rule="nonzero" fill="#ffffff"/>
   <path id="path233" d="m523.35612,342.79746l0,0.64c0,1.43999 -1.11999,2.63998 -2.55998,2.63998l-17.43987,0c-1.43999,0 -2.55998,-1.19999 -2.55998,-2.63998l0,-0.64c0,-1.43999 1.11999,-2.55998 2.55998,-2.55998l17.43987,0c1.43999,0 2.55998,1.11999 2.55998,2.55998z" fill-rule="nonzero" fill="#ffffff"/>
   <path id="path235" d="m635.51529,262.15806l-0.47999,0c-1.04,0 -1.83999,-0.88 -1.83999,-1.83999l0,-12.55991c0,-1.03999 0.79999,-1.91998 1.83999,-1.91998l0.47999,0c1.03999,0 1.83999,0.87999 1.83999,1.91998l0,12.55991c0,0.95999 -0.8,1.83999 -1.83999,1.83999z" fill-rule="nonzero" fill="#ffffff"/>
   <path id="path237" d="m643.43523,253.75812l0,0.48c0,1.03999 -0.87999,1.83998 -1.91998,1.83998l-12.47991,0c-1.03999,0 -1.91999,-0.79999 -1.91999,-1.83998l0,-0.48c0,-0.95999 0.88,-1.83999 1.91999,-1.83999l12.47991,0c1.03999,0 1.91998,0.88 1.91998,1.83999z" fill-rule="nonzero" fill="#ffffff"/>
   <path id="path239" d="m836.15381,319.35763l-0.48,0c-1.03999,0 -1.83999,-0.79999 -1.83999,-1.83998l0,-12.55991c0,-1.03999 0.8,-1.83999 1.83999,-1.83999l0.48,0c1.03999,0 1.83998,0.8 1.83998,1.83999l0,12.55991c0,1.03999 -0.79999,1.83998 -1.83998,1.83998z" fill-rule="nonzero" fill="#ffffff"/>
   <path id="path241" d="m844.07375,310.9577l0,0.47999c0,1.04 -0.88,1.91999 -1.91999,1.91999l-12.47991,0c-1.03999,0 -1.91998,-0.87999 -1.91998,-1.91999l0,-0.47999c0,-0.96 0.87999,-1.83999 1.91998,-1.83999l12.47991,0c1.03999,0 1.91999,0.87999 1.91999,1.83999z" fill-rule="nonzero" fill="#ffffff"/>
   <path id="path243" d="m889.99341,359.75734l-0.48,0c-1.03999,0 -1.83999,-0.8 -1.83999,-1.83999l0,-12.55991c0,-1.03999 0.8,-1.83998 1.83999,-1.83998l0.48,0c1.03999,0 1.83998,0.79999 1.83998,1.83998l0,12.55991c0,1.03999 -0.79999,1.83999 -1.83998,1.83999z" fill-rule="nonzero" fill="#ffffff"/>
   <path id="path245" d="m897.91335,351.4374l0,0.47999c0,0.96 -0.87999,1.83999 -1.91999,1.83999l-12.4799,0c-1.04,0 -1.91999,-0.87999 -1.91999,-1.83999l0,-0.47999c0,-1.04 0.87999,-1.83999 1.91999,-1.83999l12.4799,0c1.04,0 1.91999,0.79999 1.91999,1.83999z" fill-rule="nonzero" fill="#ffffff"/>
   <path id="path247" d="m757.83439,215.6784l-1.27999,0c-1.99999,0 -3.59998,-1.59999 -3.59998,-3.59997l0,-22.95983c0,-1.99999 1.59999,-3.59997 3.59998,-3.59997l1.27999,0c1.91998,0 3.59997,1.59998 3.59997,3.59997l0,22.95983c0,1.99998 -1.67999,3.59997 -3.59997,3.59997z" fill-rule="nonzero" fill="#ffffff"/>
   <path id="path249" d="m773.67427,200.31852l0,0.55999c0,1.99999 -1.67999,3.59998 -3.59997,3.59998l-25.83981,0c-1.91999,0 -3.59998,-1.59999 -3.59998,-3.59998l0,-0.55999c0,-1.99999 1.67999,-3.59998 3.59998,-3.59998l25.83981,0c1.91998,0 3.59997,1.59999 3.59997,3.59998z" fill-rule="nonzero" fill="#ffffff"/>
   <path id="path251" d="m905.27329,307.11773l-1.27999,0c-1.91998,0 -3.59997,-1.67999 -3.59997,-3.59998l0,-22.95983c0,-1.99998 1.67999,-3.59997 3.59997,-3.59997l1.27999,0c1.99999,0 3.59998,1.59999 3.59998,3.59997l0,22.95983c0,1.91999 -1.59999,3.59998 -3.59998,3.59998z" fill-rule="nonzero" fill="#ffffff"/>
   <path id="path253" d="m921.19318,291.75784l0,0.55999c0,1.91999 -1.67999,3.59998 -3.67998,3.59998l-25.75981,0c-1.99998,0 -3.59997,-1.67999 -3.59997,-3.59998l0,-0.55999c0,-1.99999 1.59999,-3.59997 3.59997,-3.59997l25.75981,0c1.99999,0 3.67998,1.59998 3.67998,3.59997z" fill-rule="nonzero" fill="#ffffff"/>
   <path id="path255" d="m150.71888,482.63642c0,3.35998 -2.71998,5.99996 -5.99995,5.99996c-3.35998,0 -6.07996,-2.63998 -6.07996,-5.99996c0,-3.35997 2.71998,-5.99995 6.07996,-5.99995c3.27997,0 5.99995,2.63998 5.99995,5.99995z" fill-rule="nonzero" fill="#f2b83a"/>
   <path id="path257" d="m131.19903,461.19658c-13.9199,0 -25.19982,-11.27991 -25.19982,-25.19981c0,-4.63997 1.28,-8.95993 3.43998,-12.71991c11.03992,12.23991 23.51983,23.19983 36.95973,32.79976c-4.23997,3.19998 -9.51993,5.11996 -15.19989,5.11996z" fill-rule="nonzero" fill="#f5c974"/>
   <path id="path259" d="m146.39892,456.07662c-13.4399,-9.59993 -25.91981,-20.55985 -36.95973,-32.79976c4.31997,-7.43994 12.47991,-12.4799 21.75984,-12.4799c13.9199,0 25.19981,11.27991 25.19981,25.19981c0,8.15994 -3.91997,15.43989 -9.99992,20.07985z" fill-rule="nonzero" fill="#f1b34b"/>
   <path id="path261" d="m830.79385,149.67889c0,13.9199 -11.27992,25.19981 -25.19982,25.19981c-13.91989,0 -25.19981,-11.27991 -25.19981,-25.19981c0,-13.9199 11.27992,-25.19981 25.19981,-25.19981c13.9199,0 25.19982,11.27991 25.19982,25.19981z" fill-rule="nonzero" fill="#f2b83a"/>
   <path id="path263" d="m243.75819,476.63647c0,3.51997 -2.87997,6.31995 -6.39995,6.31995c-3.51997,0 -6.39995,-2.79998 -6.39995,-6.31995c0,-3.59997 2.87998,-6.39995 6.39995,-6.39995c3.51998,0 6.39995,2.79998 6.39995,6.39995z" fill-rule="nonzero" fill="#f2b83a"/>
   <path id="path265" d="m283.5179,438.23675c0,3.51998 -2.87998,6.39996 -6.39995,6.39996c-3.51998,0 -6.39996,-2.87998 -6.39996,-6.39996c0,-3.51997 2.87998,-6.39995 6.39996,-6.39995c3.51997,0 6.39995,2.87998 6.39995,6.39995z" fill-rule="nonzero" fill="#f2b83a"/>
   <path id="path267" d="m206.07847,533.35605c0,2.79998 -2.23998,5.03996 -4.95996,5.03996c-2.71998,0 -4.95996,-2.23998 -4.95996,-5.03996c0,-2.71998 2.23998,-4.95996 4.95996,-4.95996c2.71998,0 4.95996,2.23998 4.95996,4.95996z" fill-rule="nonzero" fill="#f2b83a"/>
   <path id="path269" d="m679.03497,221.19836l0.71999,-1.27999l-74.71944,-40.9597l42.31968,-77.27942l73.43946,40.2397l-43.11968,78.55942l1.35999,0.71999l0.71999,-1.27999l-0.71999,1.27999l1.27999,0.72l43.75968,-79.91941c0.16,-0.32 0.23999,-0.72 0.16,-1.11999c-0.16,-0.32 -0.4,-0.64 -0.72,-0.88l-75.99944,-41.59969c-0.71999,-0.4 -1.59998,-0.16 -1.99998,0.56l-43.75968,79.9194c-0.39999,0.72 -0.16,1.59999 0.56,1.99999l75.99944,41.59969c0.31999,0.24 0.71999,0.24 1.11999,0.16c0.39999,-0.16 0.71999,-0.4 0.87999,-0.71999l-1.27999,-0.72z" fill-rule="nonzero" fill="#8d83c9"/>
   <path id="path271" d="m702.5548,159.19882l0.39999,-0.79999l-59.11956,-32.39976l6.71995,-12.23991l58.31957,31.99976l-7.11995,13.0399l0.8,0.4l0.39999,-0.79999l-0.39999,0.79999l0.79999,0.48l7.59994,-13.9199c0.08,-0.16 0.08,-0.4 0.08,-0.63999c-0.08,-0.24 -0.24,-0.48 -0.47999,-0.56l-59.91956,-32.79976c-0.24,-0.16 -0.48,-0.16 -0.71999,-0.08c-0.24,0 -0.4,0.16 -0.48,0.4l-7.59994,13.8399c-0.24,0.47999 -0.08,1.03999 0.31999,1.27999l59.91956,32.79975c0.24,0.16 0.48,0.16 0.71999,0.08c0.24,-0.08 0.4,-0.23999 0.56,-0.39999l-0.79999,-0.48z" fill-rule="nonzero" fill="#8d83c9"/>
   <path id="path273" d="m659.75511,164.07878l0.4,-0.79999l-28.95979,-15.83988l7.51995,-13.5999l28.07979,15.43988l-7.83994,14.3999l0.79999,0.39999l0.4,-0.79999l-0.4,0.79999l0.8,0.48l8.31994,-15.27989c0.07999,-0.15999 0.15999,-0.39999 0.07999,-0.63999c-0.07999,-0.24 -0.23999,-0.48 -0.47999,-0.56l-29.67978,-16.31988c-0.24,-0.08 -0.48,-0.08 -0.72,-0.08c-0.23999,0.08 -0.39999,0.24 -0.55999,0.48l-8.31994,15.19989c-0.24,0.47999 -0.08,1.03999 0.4,1.27999l29.67978,16.23988c0.23999,0.16 0.47999,0.16 0.71999,0.08c0.24,0 0.4,-0.16 0.56,-0.4l-0.8,-0.48z" fill-rule="nonzero" fill="#8d83c9"/>
   <path id="path275" d="m691.75488,181.83865l0.39999,-0.71999l-26.3998,-14.47989l7.51994,-13.6799l25.59981,13.99989l-7.91994,14.4799l0.8,0.39999l0.39999,-0.71999l-0.39999,0.71999l0.71999,0.4l8.39994,-15.19989c0.08,-0.24 0.08,-0.47999 0.08,-0.63999c-0.08,-0.24 -0.24,-0.4 -0.48,-0.56l-27.1198,-14.87989c-0.39999,-0.24 -0.95999,-0.08 -1.19999,0.4l-8.31994,15.19989c-0.24,0.39999 -0.08,0.95999 0.32,1.19999l27.1998,14.87989c0.4,0.24 0.87999,0.08 1.11999,-0.4l-0.71999,-0.4z" fill-rule="nonzero" fill="#8d83c9"/>
   <path id="path277" d="m627.35535,155.75885l58.39957,32.23976c0.4,0.24 0.95999,0.08 1.19999,-0.4c0.24,-0.4 0.08,-0.95999 -0.32,-1.19999l-58.39956,-32.23976c-0.4,-0.24 -0.96,-0.08 -1.19999,0.32c-0.24,0.47999 -0.08,1.03999 0.31999,1.27999z" fill-rule="nonzero" fill="#8d83c9"/>
   <path id="path279" d="m623.43538,161.5188l58.31957,32.23976c0.48,0.24 1.03999,0.08 1.27999,-0.31999c0.24,-0.48 0.08,-1.04 -0.4,-1.27999l-58.31956,-32.23976c-0.48,-0.24 -1.04,-0.08 -1.28,0.39999c-0.23999,0.4 -0.07999,0.96 0.4,1.19999z" fill-rule="nonzero" fill="#8d83c9"/>
   <path id="path281" d="m620.3954,167.91876l58.31957,32.23976c0.48,0.24 1.03999,0.08 1.27999,-0.4c0.24,-0.4 0.08,-0.95999 -0.39999,-1.19999l-58.31957,-32.23976c-0.48,-0.24 -1.03999,-0.08 -1.27999,0.32c-0.24,0.47999 -0.08,1.03999 0.39999,1.27999z" fill-rule="nonzero" fill="#8d83c9"/>
   <path id="path283" d="m616.71543,174.31871l58.39957,32.23976c0.4,0.24 0.95999,0.08 1.19999,-0.4c0.24,-0.39999 0.08,-0.95999 -0.32,-1.19999l-58.39956,-32.23976c-0.4,-0.24 -0.96,-0.08 -1.2,0.32c-0.23999,0.47999 -0.08,1.03999 0.32,1.27999z" fill-rule="nonzero" fill="#8d83c9"/>
   <path id="path285" d="m186.31862,399.11704l1.19999,-1.43999l-83.27938,-66.5595l68.79949,-86.15936l81.83939,65.43951l-69.99948,87.59935l1.43999,1.11999l1.19999,-1.43999l-1.19999,1.43999l1.43999,1.19999l71.19947,-89.11934c0.32,-0.31999 0.48,-0.87999 0.4,-1.35999c-0.08,-0.47999 -0.32,-0.87999 -0.72,-1.19999l-84.71937,-67.67949c-0.79999,-0.64 -1.91998,-0.56 -2.55998,0.23999l-71.19947,89.11934c-0.64,0.8 -0.48,1.91999 0.32,2.55998l84.71937,67.6795c0.4,0.32 0.87999,0.48 1.35999,0.4c0.47999,0 0.95999,-0.32 1.19999,-0.64l-1.43999,-1.19999z" fill-rule="nonzero" fill="#8d83c9"/>
   <path id="path287" d="m228.71831,327.75757l0.63999,-0.87999l-65.91951,-52.63961l10.95992,-13.6799l65.03952,51.91962l-11.67992,14.63989l0.96,0.63999l0.63999,-0.87999l-0.63999,0.87999l0.87999,0.72l12.31991,-15.43989c0.4,-0.48 0.32,-1.19999 -0.16,-1.59999l-66.79951,-53.3596c-0.55999,-0.4 -1.27999,-0.32 -1.59998,0.16l-12.39991,15.43988c-0.16,0.24 -0.24,0.56 -0.24,0.88c0.08,0.23999 0.16,0.55999 0.4,0.71999l66.8795,53.43961c0.24,0.15999 0.48,0.23999 0.8,0.23999c0.31999,-0.08 0.55999,-0.23999 0.79999,-0.47999l-0.87999,-0.72z" fill-rule="nonzero" fill="#8d83c9"/>
   <path id="path289" d="m174.8787,324.6376l0.72,-0.96l-32.31976,-25.75981l12.15991,-15.19988l31.35977,25.03981l-12.87991,16.15988l0.95999,0.72l0.72,-0.96l-0.72,0.96l0.88,0.63999l13.5199,-16.95987c0.24,-0.24 0.32,-0.56 0.24,-0.8c0,-0.32 -0.16,-0.63999 -0.4,-0.79999l-33.11976,-26.47981c-0.47999,-0.39999 -1.19999,-0.31999 -1.59998,0.16l-13.5999,17.03988c-0.16,0.16 -0.24,0.47999 -0.24,0.79999c0.08,0.32 0.16,0.56 0.4,0.79999l33.19975,26.47981c0.24,0.16 0.48,0.24 0.79999,0.24c0.32,-0.08 0.56,-0.24 0.8,-0.48l-0.88,-0.63999z" fill-rule="nonzero" fill="#8d83c9"/>
   <path id="path291" d="m210.47844,353.35738l0.72,-0.79999l-29.43979,-23.51983l12.23991,-15.27988l28.55979,22.79983l-12.8799,16.15988l0.79999,0.63999l0.72,-0.79999l-0.72,0.79999l0.87999,0.72l13.5999,-17.03988c0.16,-0.16 0.24,-0.47999 0.24,-0.79999c-0.08,-0.24 -0.24,-0.56 -0.4,-0.72l-30.31977,-24.15982c-0.48,-0.39999 -1.11999,-0.31999 -1.51999,0.16l-13.5999,16.95988c-0.16,0.24 -0.24,0.55999 -0.16,0.79999c0,0.32 0.16,0.56 0.4,0.79999l30.23978,24.15983c0.47999,0.39999 1.11999,0.31999 1.51998,-0.16l-0.87999,-0.72z" fill-rule="nonzero" fill="#8d83c9"/>
   <path id="path293" d="m136.71899,307.35772l65.03952,52.23962c0.47999,0.39999 1.19999,0.31999 1.59998,-0.16c0.4,-0.48 0.32,-1.19999 -0.16,-1.59999l-65.03951,-52.31961c-0.48,-0.4 -1.19999,-0.32 -1.59999,0.24c-0.4,0.47999 -0.32,1.19999 0.16,1.59998z" fill-rule="nonzero" fill="#8d83c9"/>
   <path id="path295" d="m130.63903,313.59768l65.03952,52.31961c0.48,0.4 1.19999,0.32 1.59999,-0.16c0.4,-0.48 0.32,-1.19999 -0.16,-1.59999l-65.03952,-52.31961c-0.47999,-0.4 -1.19999,-0.32 -1.59999,0.16c-0.39999,0.48 -0.31999,1.19999 0.16,1.59999z" fill-rule="nonzero" fill="#8d83c9"/>
   <path id="path297" d="m125.51907,320.79762l65.03952,52.31962c0.47999,0.39999 1.19999,0.31999 1.59999,-0.16c0.39999,-0.48 0.31999,-1.19999 -0.16,-1.59999l-65.03952,-52.31961c-0.48,-0.4 -1.19999,-0.32 -1.59999,0.16c-0.4,0.47999 -0.32,1.19999 0.16,1.59998z" fill-rule="nonzero" fill="#8d83c9"/>
   <path id="path299" d="m119.59911,327.91757l65.03952,52.31961c0.48,0.4 1.19999,0.32 1.59999,-0.23999c0.4,-0.48 0.32,-1.2 -0.16,-1.59999l-65.03952,-52.23962c-0.47999,-0.39999 -1.19999,-0.31999 -1.59998,0.16c-0.4,0.48 -0.32,1.19999 0.15999,1.59999z" fill-rule="nonzero" fill="#8d83c9"/>
   <path id="path301" d="m562.63583,438.79675l-0.32,-1.11999l-63.59952,18.55986l-19.19986,-65.75951l62.47954,-18.31987l19.59985,66.95951l1.03999,-0.32l-0.32,-1.11999l0.32,1.11999l1.11999,-0.32l-19.83985,-68.07949c-0.16,-0.56 -0.79999,-0.96 -1.43999,-0.72l-64.71952,18.87986c-0.63999,0.16 -0.95999,0.8 -0.79999,1.43999l19.91985,67.9995c0.08,0.32 0.24,0.55999 0.48,0.71999c0.31999,0.16 0.63999,0.16 0.87999,0.08l64.79952,-18.87986c0.24,-0.08 0.48,-0.32 0.63999,-0.55999c0.16,-0.24 0.16,-0.56 0.08,-0.88l-1.11999,0.32z" fill-rule="nonzero" fill="#8d83c9"/>
   <path id="path303" d="m551.75591,426.79684l-0.24,-0.87999l-50.23962,14.71989l-13.19991,-45.19967l49.43964,-14.47989l13.4399,46.07966l0.79999,-0.24l-0.24,-0.87999l0.24,0.87999l0.8,-0.24l-13.6799,-46.87965c-0.16,-0.4 -0.64,-0.72 -1.03999,-0.56l-51.03963,14.87989c-0.47999,0.16 -0.71999,0.64 -0.55999,1.11999l13.5999,46.79966c0.08,0.23999 0.24,0.39999 0.47999,0.47999c0.16,0.16 0.4,0.16 0.64,0.08l51.03962,-14.87989c0.16,-0.08 0.4,-0.24 0.48,-0.39999c0.08,-0.24 0.16,-0.48 0.08,-0.64l-0.8,0.24z" fill-rule="nonzero" fill="#8d83c9"/>
   <path id="path305" d="m498.47631,430.07681l9.99992,-16.87987l19.67986,6.95995c0.32,0.08 0.63999,-0.08 0.87999,-0.32l7.43995,-11.51991l10.79992,5.03996c0.31999,0.16 0.79999,0 0.95999,-0.32c0.16,-0.4 0,-0.79999 -0.4,-0.95999l-11.35991,-5.35996c-0.32,-0.16 -0.64,0 -0.88,0.31999l-7.51994,11.59992l-19.67986,-6.95995c-0.31999,-0.08 -0.63999,0 -0.79999,0.32l-10.31992,17.35987c-0.24,0.4 -0.08,0.79999 0.23999,1.03999c0.32,0.16 0.8,0.08 0.96,-0.32z" fill-rule="nonzero" fill="#8d83c9"/>
   <path id="path307" d="m527.67609,402.07702l-0.71999,0c0,1.83999 -0.72,3.51998 -1.91999,4.71997c-1.27999,1.27999 -2.95998,1.99998 -4.79996,1.99998c-1.83999,0 -3.51998,-0.71999 -4.79997,-1.99998c-1.19999,-1.19999 -1.91998,-2.87998 -1.91998,-4.71997c0,-1.91998 0.71999,-3.59997 1.91998,-4.79996c1.27999,-1.19999 2.95998,-1.99999 4.79997,-1.99999c1.83998,0 3.51997,0.8 4.79996,1.99999c1.19999,1.19999 1.91999,2.87998 1.91999,4.79996l0.71999,0l0.72,0c0,-4.55996 -3.67998,-8.15994 -8.15994,-8.15994c-4.47997,0 -8.15994,3.59998 -8.15994,8.15994c0,4.47997 3.67997,8.15994 8.15994,8.15994c4.47996,0 8.15994,-3.67997 8.15994,-8.15994l-0.72,0z" fill-rule="nonzero" fill="#8d83c9"/>
   <path id="path309" d="m939.19304,206.95847l-0.71999,-1.19999l-67.9195,38.95971l-40.3197,-70.23948l66.79951,-38.31972l40.95969,71.51947l1.19999,-0.71999l-0.71999,-1.19999l0.71999,1.19999l1.11999,-0.64l-41.59969,-72.63946c-0.39999,-0.64 -1.27999,-0.87999 -1.91998,-0.56l-69.03949,39.67971c-0.64,0.4 -0.87999,1.19999 -0.56,1.83999l41.67969,72.63946c0.4,0.63999 1.2,0.87999 1.91999,0.47999l69.03949,-39.5997c0.32,-0.16 0.55999,-0.48 0.63999,-0.8c0.08,-0.39999 0.08,-0.71999 -0.16,-1.03999l-1.11999,0.64z" fill-rule="nonzero" fill="#8d83c9"/>
   <path id="path311" d="m923.27316,196.15855l-0.48,-0.88l-53.5996,30.79978l-27.67979,-48.23965l52.71961,-30.23977l28.15979,49.03963l0.87999,-0.47999l-0.48,-0.88l0.48,0.88l0.87999,-0.48l-28.71978,-49.99963c-0.08,-0.24 -0.32,-0.4 -0.56,-0.48c-0.24,0 -0.55999,0 -0.79999,0.16l-54.4796,31.19977c-0.48,0.32 -0.63999,0.88 -0.32,1.35999l28.63979,49.99963c0.16,0.24 0.32,0.4 0.64,0.48c0.23999,0.08 0.47999,0.08 0.71999,-0.08l54.4796,-31.27977c0.24,-0.16 0.39999,-0.32 0.47999,-0.56c0.08,-0.31999 0.08,-0.55999 -0.08,-0.79999l-0.87999,0.48z" fill-rule="nonzero" fill="#8d83c9"/>
   <path id="path313" d="m863.03361,214.79841l6.79995,-22.15984l24.55981,2.47998c0.4,0 0.72,-0.23999 0.88,-0.55999l5.35996,-15.35989l13.7599,2.79998c0.47999,0.08 0.95999,-0.16 1.03999,-0.63999c0.08,-0.48 -0.24,-0.88 -0.64,-0.96l-14.55989,-2.95997c-0.4,-0.16 -0.79999,0.08 -0.95999,0.47999l-5.35996,15.43989l-24.55982,-2.47998c-0.4,-0.08 -0.79999,0.15999 -0.87999,0.55999l-7.03995,22.79983c-0.08,0.48 0.16,0.96 0.55999,1.11999c0.48,0.08 0.96,-0.15999 1.04,-0.55999z" fill-rule="nonzero" fill="#8d83c9"/>
   <path id="path315" d="m888.79342,174.47871l-0.8,0.16c0.16,0.63999 0.24,1.27999 0.24,1.91998c0,3.59998 -2.47998,6.87995 -6.07995,7.67995c-0.64,0.15999 -1.27999,0.23999 -1.91999,0.23999c-3.59997,0 -6.79995,-2.39998 -7.67994,-6.07995c-0.16,-0.64 -0.24,-1.27999 -0.24,-1.83999c0,-3.59997 2.39998,-6.87995 6.07995,-7.75994c0.64,-0.16 1.27999,-0.24 1.83999,-0.24c3.59997,0 6.87995,2.47998 7.75994,6.07996l0.8,-0.16l0.87999,-0.24c-1.11999,-4.39997 -5.03996,-7.35995 -9.43993,-7.35995c-0.71999,0 -1.43999,0.08 -2.23998,0.24c-4.39997,1.11999 -7.35995,5.03996 -7.35995,9.43993c0,0.72 0.08,1.43999 0.24,2.23999c1.11999,4.39996 5.03996,7.35994 9.35993,7.35994c0.79999,0 1.51999,-0.08 2.31998,-0.24c4.39997,-1.03999 7.35995,-5.03996 7.35995,-9.35993c0,-0.79999 -0.08,-1.51999 -0.24,-2.31998l-0.87999,0.24z" fill-rule="nonzero" fill="#8d83c9"/>
   <path id="path317" d="m214.95841,163.59879l-0.56,-1.03999l-58.79956,33.75975l-34.87974,-60.79955l57.75957,-33.19976l35.43974,61.83954l1.03999,-0.55999l-0.56,-1.03999l0.56,1.03999l1.03999,-0.56l-36.07973,-62.87953c-0.32,-0.56 -1.04,-0.8 -1.59999,-0.4l-59.75956,34.23975c-0.32,0.16 -0.47999,0.39999 -0.55999,0.71999c-0.08,0.32 -0.08,0.64 0.08,0.88l36.07973,62.87953c0.16,0.24 0.4,0.48 0.71999,0.56c0.32,0.08 0.64,0 0.88,-0.08l59.83955,-34.31975c0.24,-0.16 0.4,-0.4 0.48,-0.71999c0.08,-0.32 0.08,-0.64 -0.08,-0.88l-1.03999,0.56z" fill-rule="nonzero" fill="#8d83c9"/>
   <path id="path319" d="m201.19851,154.23886l-0.4,-0.72l-46.39965,26.63981l-23.91983,-41.7597l45.59967,-26.2398l24.39981,42.55968l0.72,-0.47999l-0.4,-0.72l0.4,0.72l0.79999,-0.4l-24.79981,-43.27968c-0.16,-0.16 -0.32,-0.32 -0.56,-0.4c-0.24,-0.08 -0.47999,0 -0.63999,0.08l-47.19965,27.0398c-0.4,0.24 -0.56,0.8 -0.32,1.19999l24.79981,43.27968c0.16,0.16 0.32,0.32 0.56,0.4c0.24,0.08 0.48,0 0.64,-0.08l47.19965,-27.0398c0.15999,-0.16 0.31999,-0.32 0.39999,-0.55999c0.08,-0.24 0,-0.48 -0.08,-0.64l-0.79999,0.4z" fill-rule="nonzero" fill="#8d83c9"/>
   <path id="path321" d="m149.1189,170.31874l5.83995,-19.11986l21.27984,2.07998c0.32,0.08 0.64,-0.15999 0.72,-0.47999l4.63996,-13.1999l11.99992,2.39998c0.39999,0.08 0.71999,-0.16 0.79999,-0.56c0.08,-0.39999 -0.16,-0.79999 -0.56,-0.87999l-12.5599,-2.55998c-0.32,-0.08 -0.72,0.16 -0.8,0.47999l-4.71996,13.35991l-21.19984,-2.15999c-0.32,-0.08 -0.64,0.16 -0.8,0.48l-5.99995,19.75985c-0.16,0.4 0.07999,0.8 0.47999,0.87999c0.32,0.16 0.72,-0.07999 0.88,-0.47999z" fill-rule="nonzero" fill="#8d83c9"/>
   <path id="path323" d="m171.43873,135.439l-0.71999,0.23999c0.07999,0.48 0.15999,1.04 0.15999,1.59999c0,3.11998 -2.07998,5.91996 -5.27996,6.71995c-0.55999,0.08 -1.03999,0.16 -1.59998,0.16c-3.11998,0 -5.91996,-2.15998 -6.71996,-5.27996c-0.07999,-0.55999 -0.15999,-1.11999 -0.15999,-1.59999c0,-3.11997 2.07998,-5.99995 5.27996,-6.71995c0.55999,-0.16 1.03999,-0.16 1.59999,-0.16c3.11997,0 5.91995,2.07999 6.71995,5.27996l0.71999,-0.23999l0.64,-0.16c-0.88,-3.75997 -4.31997,-6.39995 -8.07994,-6.39995c-0.64,0 -1.28,0.07999 -1.91999,0.23999c-3.83997,0.96 -6.39995,4.39997 -6.39995,8.15994c0,0.64 0.08,1.27999 0.24,1.91999c0.87999,3.83997 4.31996,6.39995 8.07994,6.39995c0.63999,0 1.27999,-0.08 1.91998,-0.24c3.83997,-0.87999 6.39995,-4.31996 6.39995,-8.07994c0,-0.63999 -0.08,-1.27999 -0.23999,-1.99998l-0.64,0.16z" fill-rule="nonzero" fill="#8d83c9"/>
  </g>
 </g>
</svg>