<svg width="1001.5748031496064" height="668.976377952756" xmlns="http://www.w3.org/2000/svg">
 <metadata id="metadata329">image/svg+xml</metadata>
 <defs>
  <pattern y="0" x="0" height="6" width="6" patternUnits="userSpaceOnUse" id="EMFhbasepattern"/>
 </defs>
 <g>
  <title>background</title>
  <rect x="-1" y="-1" width="2005.153068" height="1339.955068" id="canvas_background" fill="none"/>
 </g>
 <g>
  <title>Layer 1</title>
  <g id="svg_7">
   <g id="svg_4">
    <path id="path15" d="m582.795051,203.557487c-5.75995,6.23995 -8.39993,14.79989 -4.87996,23.43982c3.27997,7.99995 10.47992,13.8399 18.39986,17.19988c9.27993,3.91997 20.31985,6.15995 30.23978,4.15997c9.91993,-1.91999 18.87986,-7.03995 28.15979,-11.19992c9.19993,-4.15997 19.91985,-7.83994 30.07978,-5.51996c10.23992,2.23998 19.03986,7.35995 29.91978,7.91994c7.19994,0.4 15.11988,-0.71999 21.83983,-3.43997c11.51992,-4.63997 18.15987,-15.99988 16.47988,-28.39979c-3.43997,-25.51981 -41.19969,-39.19971 -63.11953,-31.99977c-8.63994,2.79998 -15.27989,8.47994 -19.91985,16.31988c-2.71998,4.63997 -5.27996,9.67993 -9.59993,13.03991c-8.95994,7.03995 -20.79985,3.11997 -29.51978,-2.31999c-10.63992,-6.55995 -24.39982,-10.95991 -36.71973,-6.63995c-4.39997,1.59999 -8.31994,4.15997 -11.35992,7.43995z" fill-rule="nonzero" fill="#181f2e"/>
    <path id="path17" d="m603.994901,243.637177c0,0.16 -0.08,0.32 -0.16,0.48c-1.19999,2.39998 -2.79998,4.55996 -4.55997,6.63995c-0.71999,0.95999 -1.59999,0.95999 -2.63998,0.79999c-6.39995,-0.63999 -23.27983,1.19999 -29.51978,2.39999c4.87996,6.79994 26.7998,17.75986 34.87974,19.19985c16.23988,2.79998 30.63977,-1.91998 39.43971,-5.11996c-4.31997,-2.71998 -22.15984,-11.67991 -26.9598,-13.4399c-1.35999,-0.48 -2.15999,-1.19999 -2.31998,-2.63998c-0.24,-1.75999 -0.64,-3.51997 -0.88,-5.27996c-0.16,-1.35999 -0.24,-2.15998 -0.08,-2.71998c2.31999,-0.87999 4.55997,-2.55998 6.31996,-4.87996l0.23999,-0.24l0.08,0.08c1.99999,1.75998 5.35996,1.11999 7.43995,-1.35999c2.07998,-2.47999 2.07998,-5.83996 0.08,-7.51995c-1.11999,-0.95999 -2.55998,-1.11999 -3.99997,-0.79999c0.87999,-7.35995 -2.39998,-13.8399 -7.91994,-15.27989c-6.23996,-1.59999 -13.03991,3.91997 -15.11989,12.31991c-1.91999,7.51994 0.63999,14.87989 5.67996,17.35987z" fill-rule="nonzero" fill="#f2514f"/>
    <path id="path19" d="m524.075491,489.475357c3.35997,-0.48 6.63995,-1.03999 9.99992,0.08c0,0.32 0,0.71999 0.08,1.03999c1.35999,3.43998 0.16,6.07996 -2.23998,8.47994c-1.51999,1.43999 -3.03998,2.79998 -4.79996,3.91997c-4.07997,2.71998 -8.23994,5.43996 -11.83992,8.87993c-1.19999,1.12 -2.71998,2.07999 -4.39996,2.47999c-1.04,0.31999 -2.15999,0.31999 -2.95998,-0.64c-0.8,-0.95999 -0.96,-2.07998 -0.56,-3.27997c0.4,-1.04 1.11999,-1.83999 1.91999,-2.55999c1.99998,-1.83998 3.91997,-3.75997 5.99995,-5.43996c4.15997,-3.51997 6.55995,-8.23993 8.79994,-12.9599z" fill-rule="nonzero" fill="#f9a823"/>
    <path id="path21" d="m524.075491,489.475357c-2.63998,-0.79999 -2.87998,-1.03999 -3.11998,-3.35997c-1.03999,-11.19992 -9.35993,-73.27946 -2.47998,-95.0393c1.51999,-4.79997 3.99997,-9.03993 7.03995,-12.9599c3.11997,-3.91998 23.03983,-23.27983 28.63979,-28.1598c4.87996,-4.31996 9.43993,-9.11993 13.67989,-14.15989c0.88,0 1.75999,0 2.71998,0.08c4.47997,0.32 8.87994,0.87999 13.3599,1.03999c11.03992,0.4 21.91984,1.75999 32.79976,2.63998c0.56,0 1.03999,0.24 1.59999,0.4c2.95998,7.51994 5.43996,15.19989 5.43996,23.43982c0,3.35998 -0.87999,6.63996 -1.43999,9.83993c-0.95999,5.19996 -1.99998,10.39992 -3.67997,15.43989c-0.64,1.91998 -0.4,2.23998 1.67999,2.07998c3.03997,-0.4 6.07995,-0.63999 9.03993,-1.27999c9.59993,-1.99998 19.35985,-3.11998 28.71979,-6.07995c0.87999,-0.32 1.75998,-0.48 2.47998,-1.04c0.71999,0.56 0.95999,1.27999 1.11999,2.07999c0.79999,3.19997 1.59999,6.39995 2.39998,9.59993c-0.16,0.71999 -0.71999,1.03999 -1.27999,1.35999c-9.03993,4.95996 -17.91987,10.23992 -27.1998,14.95989c-9.03993,4.63996 -17.99986,9.83992 -27.83979,12.9599c-4.71997,1.43999 -10.31993,3.35998 -15.19989,1.51999c-10.39992,-3.99997 -7.83994,-23.27983 -8.23994,-32.07976c-0.16,-3.91997 -0.79999,-14.63989 -1.59999,-15.99988c-1.11999,0.39999 -1.83998,1.19999 -2.71998,1.83998c-10.87992,9.03993 -22.39983,17.19987 -34.23974,24.87982c-5.27996,3.51997 -5.27996,3.43997 -5.67996,9.75993c-1.19999,17.03987 -1.75999,34.07974 -2.23998,51.19962c-0.16,7.51994 -0.4,15.11988 -1.12,22.63983c-0.23999,2.15998 -0.31999,2.15998 -2.63998,2.47998c-3.35997,-1.11999 -6.63995,-0.56 -9.99992,-0.08z" fill-rule="nonzero" fill="#4a63b8"/>
    <path id="path23" d="m595.434961,337.636487c-3.83997,-0.32 -7.67994,-0.56 -11.51992,-0.72c-4.47996,-0.16 -8.87993,-0.71999 -13.3599,-1.03999c-0.95999,-0.08 -1.83998,-0.08 -2.71998,-0.08c-4.23996,5.03996 -8.79993,9.83993 -13.67989,14.15989c-0.72,0.64 -1.67999,1.51999 -2.87998,2.55999c15.91988,-2.31999 32.15976,-5.75996 44.15967,-14.87989z" fill-rule="nonzero" fill="#181f2e"/>
    <path id="path25" d="m667.514431,271.796967c-0.32,-0.24 -0.72,-0.39999 -1.12,-0.55999c-0.71999,-0.16 -1.43999,-0.32 -2.07998,-0.48c-3.51997,-0.87999 -6.95995,-1.67999 -10.47992,-2.55998c-4.63997,-1.19999 -8.95994,-3.19998 -13.2799,-5.27996l-0.16,0.08c-13.5199,7.83994 -28.87979,10.39992 -44.15968,7.03995c-11.51991,-2.47999 -23.67982,-8.95994 -27.27979,-20.55985l-0.16,0c-0.96,-0.08 -1.99999,-0.32 -2.95998,-0.4c-3.75997,-0.24 -7.03995,-1.83999 -10.07993,-3.99997c-3.51997,-2.55998 -6.71995,-5.35996 -9.99992,-8.15994c-2.79998,-2.39998 -4.15997,-1.99998 -5.59996,1.35999c-1.59999,5.43996 -3.11998,10.95992 -4.63997,16.39988c0,1.35999 -2.79998,13.8399 -3.27997,18.87986c-0.24,2.71998 0.08,3.27998 2.71998,4.07997c6.31995,1.91999 12.6399,3.75997 19.11986,4.87996c2.07998,0.4 2.07998,0.4 2.15998,2.55998c0.08,0.88 -2.71998,36.79973 -3.91997,45.67967c-0.32,2.39998 -0.24,2.63998 2.23998,2.87997c14.47989,3.35998 77.19943,8.23994 80.31941,7.11995c2.55998,0 3.75997,-1.11999 4.15997,-3.59997c0.55999,-3.75997 3.75997,-30.63977 3.83997,-31.99976c0.08,-1.2 0.63999,-1.83999 1.91998,-1.75999c5.03997,0.63999 18.55987,0.24 20.63985,-2.55998c-0.16,-9.67993 0.64,-19.35986 2.07999,-29.03979z" fill-rule="nonzero" fill="#8d83c9"/>
    <path id="path27" d="m526.635471,228.917287c-4.39997,-3.67997 -8.55994,-7.75994 -12.71991,-11.67991c-7.59994,-7.03995 -30.87977,-29.19979 -30.55977,-30.23978c-3.75997,1.27999 -2.63998,2.15999 -6.31995,3.51998c1.27999,1.99998 2.47998,4.07996 3.75997,6.07995c11.03992,16.15988 23.19983,31.35977 37.59972,44.71967c2.55998,2.31998 5.27996,4.39997 7.59994,6.87995c2.79998,2.79998 5.91996,4.95996 9.51993,6.47995c1.51999,-5.43996 3.03998,-10.95992 4.63997,-16.39988c-4.79997,-2.79998 -9.27993,-5.83996 -13.5199,-9.35993z" fill-rule="nonzero" fill="#f2514f"/>
    <path id="path29" d="m741.753881,275.876937c-0.64,1.43999 -1.51999,2.15999 -3.11998,2.47998c-5.43996,1.27999 -10.95992,1.91999 -16.47988,2.47999c-7.83994,0.71999 -15.67988,0.47999 -23.51983,0.55999c-6.71995,0.08 -13.4399,0.16 -20.15985,-0.79999c-3.67997,-0.48 -7.27994,-1.19999 -10.95991,-1.83999c-0.72,5.59996 -1.51999,11.11992 -1.2,16.71988c0.08,1.67999 24.47982,1.99998 43.83968,-1.19999c10.55992,-1.75999 20.63985,-5.03997 30.87977,-9.03994c1.67999,-2.39998 2.63998,-5.59996 0.72,-9.35993z" fill-rule="nonzero" fill="#f2514f"/>
    <path id="path31" d="m664.074451,394.036067c-0.79999,-3.19998 -1.59999,-6.39996 -2.39998,-9.59993c-0.16,-0.8 -0.4,-1.51999 -1.11999,-2.07999c0.55999,-1.03999 1.03999,-2.23998 1.75998,-3.27997c2.23999,-3.19998 5.59996,-3.27998 8.15994,-0.32c1.27999,1.51999 2.31999,3.27998 2.63998,5.19996c0.72,5.03996 3.83998,8.55994 7.11995,12.07991c1.51999,1.59999 3.03998,3.27998 4.15997,5.19996c0.79999,1.35999 1.19999,2.79998 0.79999,4.39997c-0.47999,1.99999 -1.83998,2.87998 -3.75997,2.31998c-1.19999,-0.31999 -2.15998,-0.95999 -2.87998,-1.91998c-0.63999,-0.95999 -1.35999,-1.91999 -1.91998,-2.95998c-0.95999,-1.83999 -2.39998,-3.35997 -4.07997,-4.47997c-2.71998,-1.75998 -5.11996,-3.99997 -8.47994,-4.55996z" fill-rule="nonzero" fill="#f9a823"/>
    <path id="path33" d="m667.194431,270.756977c-1.91999,10.23992 -2.95998,20.63985 -3.11998,31.11977c-0.08,2.23998 3.43998,2.23998 3.51997,0c0.16,-10.15992 1.12,-20.23985 3.03998,-30.23978c0.4,-2.15998 -3.03998,-3.11997 -3.43997,-0.87999z" fill-rule="nonzero" fill="#585eb4"/>
    <path id="path35" d="m541.035361,232.277267c-5.03996,14.55989 -8.31994,29.59978 -9.75993,44.95966c-0.23999,2.23999 3.35998,2.23999 3.51998,0c1.43999,-15.03989 4.71996,-29.75978 9.67993,-43.99967c0.71999,-2.15999 -2.71998,-3.03998 -3.43998,-0.95999z" fill-rule="nonzero" fill="#585eb4"/>
    <path id="path37" d="m468.235901,177.717667c0.95999,-1.03999 5.27996,3.59997 5.27996,3.59997c0,0 -5.19996,-6.47995 -4.55996,-7.35994c0.95999,-1.43999 6.71995,5.91995 6.71995,5.91995c0,0 -6.07996,-8.23994 -4.39997,-9.11993c1.67999,-0.95999 6.79995,7.91994 6.79995,7.91994c0,0 -4.31997,-8.63993 -2.71998,-9.19993c1.59999,-0.55999 6.63995,10.79992 6.63995,10.79992c0,0 1.67999,-6.07995 2.95998,-5.83996c2.07998,0.4 -0.88,13.4399 -0.88,13.4399l-6.15995,3.99997c0,0 -10.71992,-13.1199 -9.67993,-14.15989z" fill-rule="nonzero" fill="#f2514f"/>
    <path id="path39" d="m759.113751,274.196957c-0.72,-1.28 -5.91996,2.31998 -5.91996,2.31998c0,0 6.47995,-5.11996 6.15996,-6.15996c-0.64,-1.59998 -7.99995,4.31997 -7.99995,4.31997c0,0 7.83995,-6.63995 6.39996,-7.99994c-1.43999,-1.27999 -8.39994,6.15996 -8.39994,6.15996c0,0 6.15995,-7.35995 4.71996,-8.23994c-1.35999,-0.96 -8.95993,8.95993 -8.95993,8.95993c0,0 -0.24,-6.31995 -1.51999,-6.31995c-2.15998,-0.08 -2.23998,13.2799 -2.23998,13.2799l-0.32,4.71996c0,0 18.79986,-9.75992 18.07987,-11.03991z" fill-rule="nonzero" fill="#f2514f"/>
    <path id="path41" d="m622.954761,239.637207c-0.16,1.35999 -1.35999,2.31998 -2.63998,2.15999c-1.35999,-0.16 -2.31999,-1.35999 -2.15999,-2.71998c0.16,-1.28 1.35999,-2.23999 2.71998,-2.07999c1.27999,0.16 2.23998,1.35999 2.07999,2.63998z" fill-rule="nonzero" fill="#d08424"/>
    <path id="path43" d="m601.274921,214.917387c-0.24,3.11998 0.71999,6.31996 2.95997,8.55994c3.03998,2.95998 7.67995,3.35998 11.99992,3.59997c7.11994,0.4 14.79989,0.48 20.87984,-3.35997c1.19999,-0.72 2.31998,-1.67999 2.71998,-3.03998c0.48,-1.59999 -0.24,-3.27997 -1.27999,-4.47997c-2.31998,-2.79997 -5.99996,-4.07996 -9.51993,-5.03996c-5.75996,-1.59999 -11.59991,-2.71998 -17.51987,-3.43997c-6.31995,-0.8 -9.59993,-0.32 -10.23992,7.19994z" fill-rule="nonzero" fill="#181f2e"/>
    <path id="path45" d="m589.355001,223.717327c-2.15998,-10.63992 5.51996,-20.47985 15.35989,-23.59983c5.27996,-1.67998 10.95992,-1.83998 16.39988,-0.79999c5.19996,0.95999 9.99993,3.19998 15.11989,4.47997c8.39993,2.07998 17.11987,0.79999 21.99983,-6.95995c2.47999,-3.99997 3.91998,-8.55994 6.63996,-12.39991c3.11997,-4.31997 7.19994,-7.59994 11.83991,-10.07993c1.99998,-1.03999 0.24,-4.07997 -1.75999,-3.03997c-4.39997,2.31998 -8.31994,5.35996 -11.51991,9.19993c-3.19998,3.83997 -4.87997,8.23994 -7.19995,12.63991c-7.27995,13.67989 -21.27984,5.75995 -32.47976,3.11997c-9.59993,-2.31998 -20.47985,-1.35999 -28.55979,4.79997c-7.19995,5.51996 -11.03992,14.63989 -9.27993,23.59982c0.4,2.23999 3.83997,1.27999 3.43997,-0.95999z" fill-rule="nonzero" fill="#181f2e"/>
    <path id="path47" d="m605.674881,290.676827c-5.35996,7.43995 -12.7199,13.11991 -21.19984,16.55988c-2.07998,0.79999 -1.19999,4.23997 0.95999,3.35998c9.43993,-3.75998 17.27988,-9.91993 23.27983,-18.15987c1.35999,-1.83999 -1.75999,-3.59997 -3.03998,-1.75999z" fill-rule="nonzero" fill="#585eb4"/>
    <path id="path49" d="m612.714831,237.317227c-0.08,1.59999 -1.43999,2.79998 -3.03998,2.71998c-1.67998,0 -2.87997,-1.43999 -2.79998,-3.03998c0.08,-1.59999 1.43999,-2.87998 3.03998,-2.79998c1.59999,0.08 2.87998,1.43999 2.79998,3.11998z" fill-rule="nonzero" fill="#181f2e"/>
   </g>
   <g id="svg_5">
    <path id="path123" d="m423.876321,188.635247c-0.56,-10.71992 -2.07999,-21.35985 -5.51996,-31.59977c-2.55998,-0.16 -5.19996,-0.4 -7.75995,-0.71999c0.24,1.99998 0.24,3.99997 0.24,5.99995c0,3.59997 0,7.19995 0.24,10.79992c0.48,8.31994 1.03999,16.63988 1.67999,25.03982c0.08,1.35999 -0.24,2.63998 -0.87999,3.83997c-3.35998,6.07995 -6.15996,12.39991 -9.91993,18.23986c-0.72,1.03999 -1.11999,2.23999 -1.67999,3.35998c0,0.24 0,0.55999 0.08,0.79999c2.47998,4.71997 5.03996,9.35993 7.03995,14.3199c0.08,0.07999 0.24,0.23999 0.4,0.31999c2.39998,-1.83998 3.83997,-4.39996 5.27996,-7.03994c2.39998,-4.39997 4.47996,-9.03994 6.47995,-13.5999c2.15998,-5.11997 3.91997,-10.23993 4.55996,-15.75989c0.56,-4.71996 0.08,-9.35993 -0.23999,-13.99989z" fill-rule="nonzero" fill="#f2514f"/>
    <path id="path125" d="m411.076411,173.115357c0.08,1.43999 0.16,2.87998 0.24,4.31997c3.99997,3.03998 8.15994,5.75996 12.39991,8.39994c-0.72,-9.75993 -2.15999,-19.43986 -5.35996,-28.79979c-2.55998,-0.16 -5.19996,-0.4 -7.75995,-0.71999c0.24,1.99998 0.24,3.99997 0.24,5.99995c0,3.59997 0,7.19995 0.24,10.79992z" fill-rule="nonzero" fill="#181f2e"/>
    <path id="path127" d="m453.876091,400.915957c-0.47999,-7.75994 -4.07997,-15.99988 -12.6399,-17.59987c-4.63997,-0.79999 -9.59993,0.48 -13.7599,2.71998c-9.67993,5.27996 -25.75981,22.55984 -34.31975,6.31996c-2.95997,-5.59996 -4.23996,-12.23991 -5.27996,-18.39987c-2.39998,-13.7599 -4.39996,-27.59979 -7.19994,-41.27969c-0.4,-1.27999 -0.8,-2.63998 -1.12,-3.99997c-11.11991,1.59999 -22.31983,1.83998 -33.59975,1.83998c-10.47992,-0.08 -20.71984,-2.07998 -30.55977,-5.75995c-1.75999,-0.64 -3.59997,-1.19999 -5.35996,-1.83999c-16.15988,18.23987 -27.5198,39.11971 -39.59971,59.99956c-10.95992,19.03985 -27.0398,34.23974 -39.9197,51.83961c-11.35992,15.59989 -25.67981,39.51971 -12.47991,58.15957c1.83999,2.31998 3.59997,4.71997 5.75996,6.71995c2.23998,2.07999 4.71996,3.75997 7.51994,5.03996c1.27999,0.32 2.63998,0.64 3.91997,0.8c13.3599,1.51999 23.99983,-3.83997 32.47976,-13.5999c5.43996,-6.15996 9.67993,-13.3599 13.3599,-20.79985c6.79995,-13.83989 12.47991,-28.07979 18.71987,-42.15968c4.23996,-9.51993 9.51993,-18.31987 16.31987,-26.23981c2.39999,-2.71998 5.03997,-4.79997 8.31994,-6.31995c8.39994,-4.07997 14.79989,1.99998 17.51987,9.67992c5.51996,15.91989 9.75993,32.71976 21.35985,45.51967c6.55995,7.27994 15.51988,12.7199 25.35981,13.4399c20.47985,1.43999 42.71968,-16.31988 55.59959,-30.71977c5.51995,-6.23996 10.47992,-21.19985 9.59992,-33.35976z" fill-rule="nonzero" fill="#181f2e"/>
    <path id="path131" d="m407.716441,245.594817c-1.12,1.83999 -2.15999,3.59998 -3.35998,5.35996c-2.07998,2.87998 -4.39997,5.51996 -7.43994,7.51995c-1.51999,1.11999 -3.19998,1.99998 -4.95997,2.79998c-0.79999,0.4 -1.59999,0.71999 -2.39998,1.11999c-1.99998,0.79999 -2.87998,1.91999 -2.95998,4.15997c-0.08,1.59999 -0.16,3.27997 -0.32,4.87996c-0.23999,3.67998 -0.55999,7.43995 -0.87999,11.11992c-0.24,3.35998 -0.4,6.71995 -0.47999,10.07993l0,0.31999c0,4.07997 0.23999,8.07994 0.71999,12.07991c0.4,3.51998 1.03999,7.03995 1.75999,10.47993c0,0.31999 0.08,0.63999 0.16,0.87999c1.35999,6.79995 0.79999,8.07994 -5.51996,10.79992c-11.91992,1.91999 -23.99983,2.15998 -36.07974,2.15998c-10.47992,-0.08 -20.71984,-2.07998 -30.55977,-5.75995c-1.75999,-0.64 -3.59997,-1.19999 -5.35996,-1.83999c-1.19999,-0.64 -2.39998,-1.19999 -3.51997,-1.91999c-2.23999,-1.35999 -2.71998,-2.63998 -1.43999,-4.95996c0.55999,-0.95999 1.03999,-1.91998 1.51999,-2.87998c1.67998,-3.35997 3.03997,-6.79995 4.47996,-10.23992c0.72,-1.83999 1.51999,-3.67997 2.31998,-5.51996c0.88,-2.07999 1.67999,-4.23997 2.31999,-6.31995c1.03999,-3.43998 1.83998,-6.87995 2.55998,-10.31993c0.32,-1.67999 0.63999,-3.27997 0.95999,-4.95996c0.4,-1.99999 0.64,-4.07997 0.95999,-6.07996c0.24,-2.15998 0.48,-4.31996 0.64,-6.47995c0.16,-1.51999 -0.24,-2.23998 -1.75999,-2.71998c-1.35999,-0.39999 -2.71998,-0.95999 -4.07997,-1.51999c-3.35997,-1.35999 -6.63995,-3.11997 -9.59993,-5.35996c-0.79999,-0.55999 -1.51998,-1.19999 -2.31998,-1.83998c-1.43999,-1.19999 -2.39998,-2.55998 -2.31998,-4.31997c0.08,-0.4 0.16,-0.8 0.24,-1.27999c0.79999,-2.95998 1.51999,-5.99996 2.23998,-9.03993c0.56,-2.39999 1.19999,-4.87997 1.75999,-7.35995c0.71999,-2.55998 1.51999,-5.03996 2.23998,-7.43994l3.99997,0.15999c3.99997,2.79998 7.83994,4.23997 11.67991,7.83995c2.15999,1.99998 5.19997,5.35996 8.39994,5.27996c5.03996,-0.08 9.99993,0.63999 15.03989,0.16c1.19999,-0.08 2.15998,0 2.71998,1.27999c-0.08,0.71999 0,1.43999 0.16,2.15998c0.63999,3.35998 3.03998,5.51996 6.31995,5.67996c3.75997,0.24 6.63995,-1.75999 7.67995,-5.03996c0.23999,-0.56 0.31999,-1.12 0.39999,-1.75999c0.32,-0.08 -0.16,-1.67999 0,-1.83999c1.11999,-1.91998 3.91997,-0.08 5.67996,-0.16c3.27998,-0.16 6.47995,0 9.67993,0.08c1.03999,0 1.83999,-0.16 2.63998,-0.95999c2.71998,-2.87998 5.59996,-5.51996 8.79993,-7.91994c0.56,-0.4 4.23997,-3.83997 4.71997,-4.31997l2.71998,3.35998c3.75997,4.95996 7.35994,10.15992 10.63992,15.51988l0.08,0.16c0.48,1.51999 0,3.11998 -0.87999,4.71996z" fill-rule="nonzero" fill="#4a63b8"/>
    <path id="path133" d="m302.197221,225.354967c-2.31999,-3.35997 -4.71997,-6.55995 -7.43995,-9.59992c-2.23998,-2.55999 -4.23997,-5.35996 -6.31995,-8.07994c-0.87999,-1.04 -1.43999,-2.23999 -1.43999,-3.67998c0.08,-6.39995 -0.95999,-12.7199 -1.27999,-19.03986c-0.24,-7.11994 -1.11999,-14.15989 -1.75999,-21.27984c-0.16,-2.23998 0.48,-9.35993 1.35999,-11.51991c-2.39998,0.79999 -5.83995,5.91995 -8.15994,5.35996c0,0.71999 -0.08,1.43999 -0.23999,2.15998c-1.75999,7.75994 -3.59998,15.43989 -4.71997,23.27983c-1.27999,8.47994 -1.19999,16.87987 1.91999,24.95981c1.67998,4.23997 3.35997,8.39994 5.03996,12.55991c0.4,0.87999 0.87999,1.75999 1.35999,2.55998c5.43996,8.71994 12.55991,15.75988 20.47985,21.99984c1.35999,-5.43996 2.71998,-10.95992 3.99997,-16.39988c-1.27999,-0.87999 -1.99999,-2.07998 -2.79998,-3.27998z" fill-rule="nonzero" fill="#f2514f"/>
    <path id="path135" d="m363.636761,236.954887c-0.47999,4.31997 -3.75997,7.03995 -8.07994,6.79995c-3.99997,-0.16 -6.55995,-3.27998 -6.47995,-7.91994c2.63998,-1.19999 4.15997,-3.99997 3.83997,-6.87995c-0.08,-0.72 -0.55999,-1.11999 -1.03999,-1.51999c-1.35999,-0.87999 -2.47998,-2.07999 -3.27998,-3.51998c-0.87999,-1.59998 -1.27999,-3.51997 -3.75997,-3.91997c-1.35999,-0.23999 -1.75999,-1.99998 -1.59999,-3.35997c0.08,-1.83999 0.72,-3.35998 2.79998,-3.75997c1.27999,0.95999 2.15999,0.63999 2.63998,-0.8c0.4,-1.19999 1.12,-1.75998 2.39999,-1.59999c0.79999,0 1.59998,-0.31999 2.39998,-0.31999c3.67997,0 6.15995,-1.67999 7.43994,-5.11997c0,-0.15999 0.24,-0.15999 0.48,-0.31999c1.51999,0.79999 1.99998,2.23998 2.23998,3.75997c0.32,1.91999 0.48,3.91997 0.8,5.83996c0.47999,2.47998 1.19999,2.87997 3.75997,2.23998c1.99998,1.19999 2.07998,3.03998 1.43999,4.95996c-0.64,1.75999 -1.91999,2.79998 -3.91997,2.63998c-1.04,-0.08 -1.67999,0.24 -2.15999,1.11999c-0.31999,0.48 -0.63999,0.8 -1.03999,1.28c-0.63999,0.87999 -2.07998,1.19999 -1.91998,2.63998c0.15999,2.07998 0.23999,4.15997 1.51998,5.91995c0.48,0.64 1.04,1.19999 1.51999,1.83999z" fill-rule="nonzero" fill="#f2514f"/>
    <path id="path137" d="m218.037841,492.915277c1.83999,2.31998 3.59997,4.71997 5.75996,6.71995c2.23998,2.07999 4.71996,3.75997 7.51994,5.03996c-0.71999,0.16 -1.11999,0.56 -1.19999,1.27999c-0.16,1.35999 -0.4,2.63998 -0.71999,3.99997c-1.35999,5.35997 -4.95997,7.35995 -10.07993,4.71997c-2.87998,-1.51999 -4.79996,-4.07997 -7.03995,-6.31995c-2.39998,-2.31999 -4.95996,-4.39997 -7.91994,-5.91996c-2.55998,-1.35999 -5.03996,-2.79998 -7.27994,-4.55997c-1.04,-0.79999 -1.91999,-1.67998 -2.55998,-2.79998c-1.43999,-2.87997 0.23999,-6.07995 3.51997,-6.31995c1.27999,-0.08 2.47998,0.08 3.75997,0.4c4.23997,1.11999 8.47994,2.15998 12.79991,3.27997c1.11999,0.32 2.23998,0.4 3.43997,0.48z" fill-rule="nonzero" fill="#f9a823"/>
    <path id="path139" d="m453.156101,400.995957c-0.32,-1.91998 -0.56,-3.91997 -0.95999,-5.83995c-1.59999,-7.27995 -5.59996,-11.75992 -13.5199,-12.07992c-0.32,-0.07999 -0.64,-0.15999 -1.04,-0.23999c2.63998,-3.11998 5.99996,-4.55997 9.99993,-4.07997c2.47998,0.23999 4.87996,1.19999 6.95995,2.71998c1.83999,1.35999 3.67997,2.87998 5.43996,4.39996c3.19997,2.63998 6.95995,4.39997 10.47992,6.55996c1.35999,0.87999 2.79998,1.67998 3.91997,2.79997c2.79998,2.95998 2.63998,5.91996 -0.55999,8.31994c-2.15999,1.59999 -4.63997,2.15999 -7.35995,1.59999c-4.55997,-1.03999 -9.11993,-2.07998 -13.3599,-4.15997z" fill-rule="nonzero" fill="#f9a823"/>
    <path id="path141" d="m367.156741,215.755047c-0.4,0 -0.64,0.07999 -0.96,0.15999c0.16,-7.75994 -3.91997,-14.23989 -9.27993,-14.47989c-4.79996,-0.16 -9.03993,4.63997 -10.23992,11.27992c-0.16,0 -0.32,-0.08 -0.48,-0.08c-1.75999,-0.08 -3.27997,1.91998 -3.43997,4.47997c-0.08,2.47998 1.27999,4.63996 3.03997,4.71996c0.48,0 0.88,-0.08 1.28,-0.32c1.03999,5.75996 4.63996,8.55994 8.55993,8.71994c3.51998,0.16 6.71995,-2.39998 8.63994,-6.31996c0.55999,0.96 1.43999,1.51999 2.39998,1.59999c1.91999,0.08 3.51997,-2.07998 3.67997,-4.71996c0.08,-2.71998 -1.35999,-4.95997 -3.19997,-5.03996z" fill-rule="nonzero" fill="#f2514f"/>
    <path id="path143" d="m427.956291,148.795537c-0.8,-1.19999 -5.83996,2.79998 -5.83996,2.79998c0,0 6.15995,-5.59996 5.75996,-6.63995c-0.72,-1.59999 -7.67995,4.87996 -7.67995,4.87996c0,0 7.35995,-7.27994 5.83996,-8.47993c-1.51999,-1.19999 -7.99994,6.79995 -7.99994,6.79995c0,0 5.59996,-7.83995 4.15997,-8.63994c-1.51999,-0.79999 -8.39994,9.59993 -8.39994,9.59993c0,0 -0.63999,-6.23995 -1.91998,-6.23995c-2.23999,0.07999 -1.35999,13.59989 -1.35999,13.59989l5.51995,4.87997c0,0 12.71991,-11.35992 11.91992,-12.55991z" fill-rule="nonzero" fill="#181f2e"/>
    <path id="path147" d="m284.197351,174.315347c0.24,-0.24 0.48,-0.39999 0.72,-0.55999c-0.32,-3.35998 -0.64,-6.71995 -0.96,-10.07993c-0.16,-2.23998 0.48,-9.35993 1.35999,-11.51991c-2.39998,0.79999 -5.83995,5.91995 -8.15994,5.35996c0,0.71999 -0.08,1.43999 -0.23999,2.15998c-1.75999,7.75994 -3.59998,15.43989 -4.71997,23.27983c-0.08,0.47999 -0.16,1.03999 -0.24,1.51999c4.07997,-3.43998 8.15994,-6.79995 12.23991,-10.15993z" fill-rule="nonzero" fill="#181f2e"/>
    <path id="path149" d="m268.357471,147.115547c1.03999,-0.95999 5.19996,3.83998 5.19996,3.83998c0,0 -5.03996,-6.63996 -4.31997,-7.59995c0.95999,-1.43999 6.55995,6.23996 6.55995,6.23996c0,0 -5.83995,-8.47994 -4.15997,-9.35994c1.75999,-0.87999 6.63995,8.15994 6.63995,8.15994c0,0 -4.07996,-8.79993 -2.47998,-9.27993c1.59999,-0.55999 6.39996,11.03992 6.39996,11.03992c0,0 1.83998,-6.07995 3.11997,-5.75996c2.07999,0.48 -1.27999,13.5199 -1.27999,13.5199l-6.31995,3.83998c0,0 -10.39992,-13.5999 -9.35993,-14.6399z" fill-rule="nonzero" fill="#181f2e"/>
    <path id="path151" d="m358.516801,221.834997c-0.4,1.91999 -2.15998,3.27998 -4.07997,3.11998c-1.91998,-0.24 -3.27997,-1.83999 -3.35997,-3.75997l7.43994,0.63999z" fill-rule="nonzero" fill="#ffffff"/>
    <path id="path153" d="m334.916981,330.356487c-5.27997,19.11985 -5.99996,39.5197 -3.51998,59.11956c0.08,1.03999 1.75999,1.03999 1.59999,0c-2.39998,-19.51986 -1.75999,-39.67971 3.43997,-58.63957c0.32,-1.03999 -1.27999,-1.51999 -1.51998,-0.47999z" fill-rule="nonzero" fill="#344a62"/>
    <path id="path155" d="m312.677141,386.676067c9.75993,-0.72 18.79986,0.87999 24.47982,9.43993c3.99997,6.07995 5.99995,13.2799 7.35994,20.31985c0.24,0.95999 1.83999,0.55999 1.59999,-0.48c-1.59999,-7.91994 -3.91997,-16.31988 -9.11993,-22.79983c-5.99996,-7.59994 -15.11989,-8.79993 -24.31982,-8.07994c-1.03999,0.08 -1.03999,1.67999 0,1.59999z" fill-rule="nonzero" fill="#344a62"/>
    <path id="path157" d="m356.436821,332.036467c4.55996,11.51992 13.67989,32.79976 29.83977,28.23979c1.04,-0.31999 0.64,-1.91998 -0.39999,-1.59998c-7.83994,2.23998 -14.87989,-3.67998 -19.19986,-9.59993c-3.83997,-5.27996 -6.31995,-11.43992 -8.63994,-17.43987c-0.39999,-0.96 -1.99998,-0.56 -1.59998,0.39999z" fill-rule="nonzero" fill="#344a62"/>
    <path id="path159" d="m317.957101,326.596507c-3.35997,5.75996 -6.79995,11.67992 -11.83991,16.23988c-2.47998,2.23999 -5.27996,4.15997 -8.47994,5.27996c-2.47998,0.88 -5.27996,0.64 -7.43994,2.07999c-0.88,0.55999 -0.08,1.99998 0.79999,1.43999c2.39998,-1.59999 6.07996,-1.43999 8.79994,-2.63998c2.79997,-1.19999 5.27996,-2.95998 7.51994,-4.95997c5.11996,-4.63996 8.63994,-10.71992 12.07991,-16.63987c0.56,-0.96 -0.87999,-1.75999 -1.43999,-0.8z" fill-rule="nonzero" fill="#344a62"/>
    <path id="path161" d="m408.596431,240.874857l-0.08,-0.16l-47.11965,-2.07998c-0.24,0.95999 -0.87999,1.83998 -1.67999,2.39998c-0.16,0.24 -0.32,0.4 -0.47999,0.47999c-0.48,0.48 -1.04,0.8 -1.67999,0.96c-0.56,0.32 -1.19999,0.39999 -1.91999,0.39999c-0.16,-0.07999 -0.4,-0.07999 -0.63999,-0.07999c-0.24,0 -0.48,0 -0.72,0c-3.03998,-0.16 -4.55996,-2.39999 -4.63996,-4.71997l-46.39966,-2.07998c-0.71999,3.03997 -1.43999,6.07995 -2.23998,9.03993c-0.08,0.47999 -0.16,0.87999 -0.24,1.27999l103.59923,4.63996c1.19999,-1.75998 2.23998,-3.51997 3.35998,-5.35996c0.87999,-1.59998 1.35999,-3.19997 0.87999,-4.71996z" fill-rule="nonzero" fill="#f6e8dc"/>
    <path id="path163" d="m391.956551,261.274707c-0.79999,0.4 -1.59999,0.71999 -2.39998,1.11999c-1.99998,0.79999 -2.87998,1.91999 -2.95998,4.15997c-0.08,1.59999 -0.16,3.27997 -0.32,4.87996l-66.07951,-2.87998c0.24,-2.15998 0.48,-4.31996 0.64,-6.47995c0.16,-1.51999 -0.24,-2.23998 -1.75999,-2.71998c-1.35999,-0.39999 -2.71998,-0.95999 -4.07997,-1.51999l76.95943,3.43998z" fill-rule="nonzero" fill="#f6e8dc"/>
    <path id="path165" d="m384.916611,292.634477l0,0.31999l-69.19949,-3.03997c1.03999,-3.43998 1.83998,-6.87995 2.55998,-10.31993l67.1195,2.95998c-0.24,3.35998 -0.4,6.71995 -0.47999,10.07993z" fill-rule="nonzero" fill="#f6e8dc"/>
    <path id="path167" d="m387.396591,315.514307l-80.7994,-3.51998c1.67998,-3.35997 3.03997,-6.79995 4.47996,-10.23992l74.55945,3.27997c0.4,3.51998 1.03999,7.03995 1.75999,10.47993z" fill-rule="nonzero" fill="#f6e8dc"/>
    <path id="path169" d="m305.077201,218.037317c-2.15999,10.31992 -5.19997,20.39985 -9.03994,30.23977c-1.51999,3.99997 4.71997,5.91996 6.23996,1.99999c3.83997,-9.75993 6.87995,-19.91985 9.03993,-30.23978c0.87999,-4.07997 -5.35996,-6.07995 -6.23995,-1.99998z" fill-rule="nonzero" fill="#4b61b6"/>
    <path id="path171" d="m393.556541,221.717287c4.55997,7.99994 9.11993,16.07988 13.6799,24.07982c1.75999,-1.19999 3.51997,-2.47998 5.35996,-3.67997c-0.24,-0.24 -0.4,-0.48 -0.64,-0.64c-2.87997,-3.11997 -7.75994,1.27999 -4.79996,4.39997c0.16,0.24 0.4,0.4 0.56,0.64c2.47998,2.63998 7.19994,-0.4 5.35996,-3.75998c-4.55997,-7.99994 -9.11994,-16.07988 -13.6799,-24.15982c-2.07999,-3.59997 -7.91994,-0.55999 -5.83996,3.11998z" fill-rule="nonzero" fill="#4b61b6"/>
    <path id="path173" d="m347.396881,235.557187c0.4,2.55998 -0.08,5.27996 1.99999,7.27994c1.67999,1.67999 4.31997,2.07999 6.63995,2.23999c6.63995,0.31999 8.87993,-4.55997 9.27993,-10.39993c0.16,-2.15998 -3.11998,-2.31998 -3.27998,-0.15999c-0.07999,1.75998 -0.15999,3.75997 -1.11999,5.35996c-1.19999,1.99998 -3.51997,2.07998 -5.59996,1.83998c-1.67998,-0.16 -3.27997,-0.47999 -4.07997,-2.07998c-0.71999,-1.27999 -0.39999,-3.27998 -0.63999,-4.79997c-0.4,-2.07998 -3.59997,-1.35999 -3.19998,0.72z" fill-rule="nonzero" fill="#4b61b6"/>
    <path id="path175" d="m351.236851,285.076817c-5.67995,6.07996 -12.15991,11.35992 -19.35985,15.67988c-0.88,0.56 -0.08,1.91999 0.87999,1.43999c7.27995,-4.39996 13.8399,-9.75992 19.67986,-15.99988c0.71999,-0.71999 -0.48,-1.91998 -1.2,-1.11999z" fill-rule="nonzero" fill="#344a62"/>
    <path id="path177" d="m366.596741,270.116927c-2.15998,2.71998 -4.47997,5.19996 -7.03995,7.51995c-0.79999,0.71999 0.4,1.83998 1.19999,1.11999c2.47999,-2.23999 4.79997,-4.79997 6.95995,-7.43995c0.64,-0.79999 -0.47999,-1.99998 -1.11999,-1.19999z" fill-rule="nonzero" fill="#344a62"/>
    <path id="path179" d="m353.476841,193.915207c0,7.03995 -5.67996,12.7999 -12.79991,12.7999c-7.03995,0 -12.7999,-5.75995 -12.7999,-12.7999c0,-7.03995 5.75995,-12.79991 12.7999,-12.79991c7.11995,0 12.79991,5.75996 12.79991,12.79991z" fill-rule="nonzero" fill="#903222"/>
    <path id="path181" d="m363.876761,202.875137c0,4.95996 -3.99997,9.03993 -8.95993,9.03993c-5.03997,0 -9.03994,-4.07997 -9.03994,-9.03993c0,-4.95996 3.99997,-9.03993 9.03994,-9.03993c4.95996,0 8.95993,4.07997 8.95993,9.03993z" fill-rule="nonzero" fill="#903222"/>
    <path id="path183" d="m364.356761,189.195237c0,4.95997 -3.99997,8.95994 -9.03994,8.95994c-4.95996,0 -8.95993,-3.99997 -8.95993,-8.95994c0,-5.03996 3.99997,-9.03993 8.95993,-9.03993c5.03997,0 9.03994,3.99997 9.03994,9.03993z" fill-rule="nonzero" fill="#903222"/>
    <path id="path185" d="m373.156691,199.595167c0,4.95996 -4.07997,9.03993 -9.03993,9.03993c-4.95996,0 -9.03993,-4.07997 -9.03993,-9.03993c0,-5.03997 4.07997,-9.03994 9.03993,-9.03994c4.95996,0 9.03993,3.99997 9.03993,9.03994z" fill-rule="nonzero" fill="#903222"/>
    <path id="path187" d="m360.276791,218.635017c3.11997,-0.08 4.87996,-3.59997 7.75994,-4.71996c2.71998,-1.03999 5.67996,0.16 8.47994,0.71999c5.35996,0.96 13.4399,0.8 17.99986,-2.55998c2.15999,-1.51999 1.04,-3.19997 -0.87999,-4.07997c-4.87996,-2.31998 -10.71992,-0.08 -15.27989,1.99999c2.79998,-1.11999 5.51996,-2.31998 7.83995,-4.15997c2.15998,-1.83999 6.47995,-7.83994 2.23998,-9.83993c-2.71998,-1.27999 -6.55995,1.51999 -8.55994,3.03998c-2.63998,2.07998 -4.95996,4.55997 -6.87995,7.35994c-1.27999,1.83999 -2.47998,3.99998 -4.47996,5.19997c-1.59999,0.95999 -3.51998,1.19999 -5.43996,1.43999c-0.88,0.07999 -2.15999,0 -2.31999,-0.96l-0.47999,6.55995z" fill-rule="nonzero" fill="#181f2e"/>
    <path id="path189" d="m353.956831,213.755057c0,3.35998 -2.15998,5.99996 -4.87996,5.99996c-2.71998,0 -4.95996,-2.63998 -4.95996,-5.99996c0,-3.27998 2.23998,-5.99996 4.95996,-5.99996c2.71998,0 4.87996,2.71998 4.87996,5.99996z" fill-rule="nonzero" fill="#181f2e"/>
    <path id="path191" d="m363.236771,214.795047c0,3.35998 -2.23999,5.99996 -4.95997,5.99996c-2.71998,0 -4.87996,-2.63998 -4.87996,-5.99996c0,-3.27997 2.15998,-5.99995 4.87996,-5.99995c2.71998,0 4.95997,2.71998 4.95997,5.99995z" fill-rule="nonzero" fill="#181f2e"/>
   </g>
  </g>
 </g>
</svg>